/* XPM */
static char *_c6957f56fcd4b28e009c7d669318c32MnDnayvymWxAlmgm[] = {
/* columns rows colors chars-per-pixel */
"64 64 226 2 ",
"   c #000000",
".  c #080308",
"X  c #130400",
"o  c #1C0801",
"O  c #090519",
"+  c #131313",
"@  c #230701",
"#  c #330700",
"$  c #351504",
"%  c #0F092A",
"&  c #0E182D",
"*  c #130B34",
"=  c #0B193A",
"-  c #151C37",
";  c #1B1D3A",
":  c #221F34",
">  c #0C2737",
",  c #14223D",
"<  c #1C223C",
"1  c #1C293E",
"2  c #222536",
"3  c #2D2F33",
"4  c #23263E",
"5  c #28263E",
"6  c #262A3C",
"7  c #2A2D3D",
"8  c #450A00",
"9  c #4E1402",
"0  c #660F00",
"q  c #781100",
"w  c #562306",
"e  c #6A2807",
"r  c #773008",
"t  c #663932",
"y  c #0A1946",
"u  c #0F2346",
"i  c #0B2F4E",
"p  c #142444",
"a  c #1B2542",
"s  c #1C2A45",
"d  c #152849",
"f  c #1B2B4B",
"g  c #17324B",
"h  c #1D334B",
"j  c #162954",
"k  c #1C2D52",
"l  c #0B3358",
"z  c #153355",
"x  c #1D3453",
"c  c #1B3C56",
"v  c #133559",
"b  c #16385A",
"n  c #1D3D5A",
"m  c #222643",
"M  c #242B44",
"N  c #2A2C43",
"B  c #242D4A",
"V  c #2A2E4B",
"C  c #302E4A",
"Z  c #233145",
"A  c #2E3243",
"S  c #24324D",
"D  c #2C334C",
"F  c #2D394F",
"G  c #323445",
"H  c #33344B",
"J  c #35394B",
"K  c #383849",
"L  c #3A3D4E",
"P  c #232E50",
"I  c #243453",
"U  c #2B3552",
"Y  c #243A55",
"T  c #2C3A54",
"R  c #24365C",
"E  c #2A3758",
"W  c #243C5B",
"Q  c #2C3C5A",
"!  c #323653",
"~  c #383655",
"^  c #343B54",
"/  c #3B3C53",
"(  c #333D5A",
")  c #3A3E5A",
"_  c #261668",
"`  c #2C1978",
"'  c #0F3860",
"]  c #173D64",
"[  c #243F63",
"{  c #2C3D61",
"}  c #403E5B",
"|  c #3B404E",
" . c #244259",
".. c #2C425C",
"X. c #354357",
"o. c #3D4154",
"O. c #33435D",
"+. c #3D435B",
"@. c #3D4A5D",
"#. c #0C4069",
"$. c #194469",
"%. c #1B4A74",
"&. c #1C4B77",
"*. c #2C4362",
"=. c #284666",
"-. c #244B6D",
";. c #334562",
":. c #3C4561",
">. c #344964",
",. c #3C4A64",
"<. c #38456A",
"1. c #344C6B",
"2. c #3B4C6B",
"3. c #2B526D",
"4. c #34526B",
"5. c #3C526C",
"6. c #234B74",
"7. c #2A4D73",
"8. c #354C72",
"9. c #2D5374",
"0. c #285479",
"q. c #3B5472",
"w. c #365877",
"e. c #3E5975",
"r. c #355B7C",
"t. c #38607E",
"y. c #46474B",
"u. c #424455",
"i. c #43445B",
"p. c #494759",
"a. c #45495C",
"s. c #4A4C5E",
"d. c #424662",
"f. c #444B63",
"g. c #4B4C63",
"h. c #424D69",
"j. c #4B4D69",
"k. c #524E63",
"l. c #4D5165",
"z. c #43526C",
"x. c #4D536A",
"c. c #48556A",
"v. c #525365",
"b. c #53546B",
"n. c #595569",
"m. c #55586D",
"M. c #5A5A6D",
"N. c #4B5571",
"B. c #475873",
"V. c #445B76",
"C. c #445D7B",
"Z. c #4B5D7A",
"A. c #555B73",
"S. c #535976",
"D. c #5B5D73",
"F. c #625F73",
"G. c #49627B",
"H. c #5C6376",
"J. c #53647A",
"K. c #5C637A",
"L. c #616275",
"P. c #63667C",
"I. c #77767B",
"U. c #797979",
"Y. c #8A1400",
"T. c #841900",
"R. c #951D02",
"E. c #892204",
"W. c #A72B05",
"Q. c #AD3107",
"!. c #B13207",
"~. c #852F21",
"^. c #C03E09",
"/. c #E83400",
"(. c #FB3800",
"). c #CA1C34",
"_. c #B4490C",
"`. c #CB480B",
"'. c #D34D0C",
"]. c #C6500E",
"[. c #CD530E",
"{. c #D7550F",
"}. c #E0580F",
"|. c #E75D10",
" X c #E96D28",
".X c #438371",
"XX c #EE9766",
"oX c #F0A277",
"OX c #311D88",
"+X c #39219D",
"@X c #3C23A5",
"#X c #543FAB",
"$X c #4126B4",
"%X c #4528BE",
"&X c #4C33B5",
"*X c #2E5C84",
"=X c #345B82",
"-X c #3A6280",
";X c #635796",
":X c #4B6484",
">X c #486888",
",X c #536A86",
"<X c #4E708C",
"1X c #676983",
"2X c #65758A",
"3X c #6F7588",
"4X c #813E81",
"5X c #9F4D9F",
"6X c #CB4E90",
"7X c #FB79FB",
"8X c #758397",
"9X c #748DA9",
"0X c #00DACB",
"qX c #1CD1C4",
"wX c #00EBDB",
"eX c #828282",
"rX c #888A9B",
"tX c #8E92A7",
"yX c #B2B2B2",
"uX c #F2B491",
"iX c #F4C1A5",
"pX c #F7CBB6",
"aX c #F9D4C6",
"sX c #F6EBE7",
"dX c #F7F5F5",
"fX c #FBFBFB",
/* pixels */
"i x i v l b l $.t.r.6.&.&.0.*X*X&.&.#.=X6.$.9.t.t.9.r.0.w.-X=X,X:X:X:X1.G.5.:X>.V.;.N.:.3Xx.G A 2 G | a.u.G K l.| | | 2 3 @.y.K ",
"W i b $.-.0.$.$.0.t.0.$.%.&.&.#.%.=X] 6.%.w.9.9.<Xr.t.>X>X8.C.:X:Xe.:XV.C.V.1.;.z.O.) ( s.N A o.A | | u.| @.| u.| | G | | | u.7 ",
"x z v v l <X0.-.#.-.$.&.#.&.*X0.$.=X=.' 9.9.9.9.w.t.-X<X:X8.q.8.e.V.C.V.C.V.q.Z.( X.! V H G G J | a.@.| A 6 G u.J G a.u.3 | u.K ",
"j z v b v 3.-.c c 3.$.#.&.*X>Xr.7.7.' 6.-.w.9.6.3.r.r.:Xw.8.>X1.:XZ.q.e.:X:X2.2.M ! ^ 4 l.A 7 s.| 7 | a.| 3 | | G u.@.7 6 | 7 M.",
"z n c z c i c  .n 9.=X$.l ] %.l -.9.l $.$.$.| 4 4 4 4 | C.:X4 9X9XG.W =.B.1.Q J.A.i.J N J a.| 7 G u.G 7 A 7 | s.| s.u.7 1 3 1 K ",
"g  . .g  .g c =.r.0.7.] ' $.v l v ] =.' 3.|   | 4             5.V.|   | { ;.J.f.d.^ J ! F | G G M.u.| o.A | @.u.6 A A 7 7 m.| | ",
"=.n ..c 4. ...G.7.=X7.] -.l ' ' b x [ -.  9 {.                      {.    ..O.c.B H o.A 7 G | A u.@.K 3 7 G H.| s.H.o.D o.^ X.a.",
">.c g  . .3.3.,XV.7.] v ] l ' l b =.L 9.  w |.                      |.    ..@.@.X.U i.l.F 7 A G | a.l.| @.s.@.s.s.m.i.i.g.i.g.+.",
"h ..> Y  . .e.G.5.n i v j j ] =X>X  w.>X                        |.|.Y.    O.h.X.X.Z A ^ A 6 A A G 7 L ^ a.b.o.f.@.o.L 1XJ o.+.D ",
", S Y T Y Y V.=.=.=.-.v v 8.7.r.9.3.                            |.|.#     X.Z @.F F J.J o.G A A L rXo.g.d.o.K.+.i.u.| x.g.rXM.G ",
"Y ..X...O.h *.*.V.1.C.:X=.=.q.3.3.w.                            |.|.      X.D X.F a.u.A o.J J | g.l.l.g.g.1XM.J o.i.i./ A G u.s.",
"h z.>.Y *.h R x *.1.W h h ..*.3.w.e.                          |.Y.Y.        A g.l.s.+./ s.@.f.f.@.h.x.l.x.P.i.o.a.+.a.d.o.o.u.l.",
"X.5.h h ..Q W I 2.Y Y x W ;.e.e.4.,X.     o w w 9     . w w w |.Q.Q.#       G / a.l.b.o.H.F X.X.@.J.c.H.A.s.m.l.l.+.+.x.o.o.m.o.",
"S S h Z V.Q Q { *.I *.Y { Q 2X            w |.|._.    X |.|.|.|.|.|.Y.      2 / J i.d.A J T ,.@.f.c.,.f.l.+.m.x.f.i.a.f.N.J f.H.",
"h S ..h ( W 1.Q *.<.Q x Y V.J.B.5.  r |.|.XXfXfXaX|.|.|.|.|.|.|.|.|.Y.          / / ) < s F N.8XB.z.O.X.o.^ a.X.f.^ g.J X.J | s.",
"..Y Y O.>.*...*.,XQ >.....Y @.J.2X  e {.|.XXfXsXpX|.[.[.[.[.[.|.|.|.R.          K.H M +.Z B.h.h.f.S.z.A.f.i.d.a.x.i.F / f.^ o.f.",
" .W W ..;.*.2.;.2.5.>.G.5.Y O.>.>.      |.XXfX|.|.|.          |.|.|.|.          J J H i.S c.S.O.z.z.B.x.d.l.f.+.m.f.+.| a.c.l.H.",
"x x g h 1.;.1.V.G.B.,.>.O.O.O.    |.|.|.|.XXfX|.|.|.|.|.|.|.|.  |.|.|.Y.Y.      i.) ! d.S ,.h.,.2X,.c.h.@.l.f.J @.o.l.D f.P.H.N.",
"f *.G.x 1.*...>.z.,X5.@.@.z. .    |.|.|.|.XXfX|.|.|.|.}.|.|.|.  |.|.|.Y.Y.      ^ ) :.^ D ,.( O.N.:.B.f.o.f.m.+.a.f.! f./ a.+.:.",
"2Xh V.V.>.;.*.>.5.2.z.T ....O.    fXU.  |.XXfX|.|.|.fXsX  fXfX|.Y.Y.|.Y.Y.        ^ :.+.O.,.,.O.X.z.z.c.+.o.h.f.! | H.D i.+.:.f.",
"8.5.5.J.Y >.e.O.;.Z.O.O.T 2.;.    fXdXdXY.!.|.|.'.Y.fXfXdXfXfXY.Y.Y.|.|.|.        d.l.( S ( T U J.( :.+.h.H.A.P.m.x.x.+.+.^ ! d.",
"q.*.C.,X..>.V.1.2.G.>.Y T Q (     fXfXfXY.Q.|.|.'.Y.fXfXfXfXfXY.Y.Y.|.|.|.        d.+.! D h.O.D h.h.,.X.x.A.a.+.f.+.a.~ D F ) d.",
"e.e.,X<XC.5.,X1.*.B.>.S O.Z ,X/ S   8 Y.|.|.|.|.|.|.Y.Y.Y.Y.Y.|.    Y.|.|.        +.i.i.F ) ) ( U a.1Xa.a.K.J ^ o.o.D f.! ! ! d.",
"V.t.<X:X<XC.4. .>.B.,.O.( O.,.U (   e `.pXoX|.|.|.|.`.`.`.`.`.|.    Y.|.|.0 X     a.f.+.A.~ ) ) +.) i./ +.a.c.A ) ;.+.S.d.^ N.S.",
"G.4.=.*.8.w.9.1.1.2.;.O.Y h c.s -   r |.fXiX|.|.|.|.|.|.|.|.|.|.    Y.|.|.Y.X     g.d.o.! ^ g.j.J i.+./ o.^ M ) T Q Q ) f.T ( :.",
"4.=.=.b [ z 3.*.1...;.>.Q , T U ,   eXfXfXiX|.|.|.|.|.|.Y.|.|.|.    Y.|.|.Y.X     g.g.i.i.} / } D.L o.H A +.d.! U I { O.J.+.f.d.",
"=.1.1.[ =.W =. .*.*.Z.Q Y T h.s 1   eXfXfXiX|.|.|.|.|.{.9 |.|.^.    Y.|.|.!.X     g.g.d.j.} / i.K.3XL.| a./ j.) ( R { :.@.T ( :.",
"5.1.;.x 1.R Q >.{ ;.3X;.T ( S B D   eXfXfXiX|.|.|.|.|.{.  |.|.Y.    Y.|.|.|.@     i.s.D.g./ } i./ k.K G l.J / K E d R ( B.+.! N.",
"2XG.z. .Y W I ,...Q 2XK.2Xh.2.    |.uXdXfXiX|.|.|.|.|.{.  Y.Y.  Y.Y.Y.|.|.Y.Y.Y.  l.j.g.} ~ / s.i./ } p.s.u.s.v.A.S p ( O.T f.( ",
"G.G.5.G.5...z.F T N.X.,.) d.1X     XuXdXdXpX X].[.|.{.`.  q q X Y.Y.R.|.|.Y.q q   b.l.s.} / s.H g./ p.p.u.L rXF.u.2 - A F +.,.! ",
",. .X. .,.O.h Y Z Z Q U ) d.S.    fXfXdXfXfXfX  $ |.T.T.      Y.Y.Y.|.|.|.Y.X     L g.u.k.k./ u.D.| p.M.v.u.} K L G a.A ! Y O.D ",
",. .,.T @...Y T ( T +.T +.d.)       5X7X7X5X    $ |.      Y.Y.Y.Y.Y.|.Y.Y.  @X%X  L b.b.p.l.g.s.M.| n.n.k.u.y.p./ G J D J F z.( ",
"z.Q ( ( O.U ( ,.S X.@.! K.j.)       5X7X7X5X    $ |.      Y.Y.Y.Y.Y.|.Y.Y.  @X%X  o.L v.g.l.F.n.p.F.F.n.v.s.g.u.} K C N ^ z.5.S ",
"z.f ! U N.a B +.F M ^ U f.d.i.    q 6X7X7X6XY.  $ |.      Y.Y.Y.Y.Y.      U.+   %X*   / g.g.g.d.b.F.n.k.s.p.s.i.) N - H ! O.Y F ",
"I U ) V } N V ~ 7 | A V ) ! K     7X7X7X7X7X7X|.'.Y.                  U.U.  @X%X%X*   | s.m.i.i.n.F.n.M.n.l.D A m s a B D O.@.( ",
"M +./ C ) N N G +.P.b.V ! ) tX    7X7X7X7X7X7X|.'.Y.                  U.U.  @X%X%X*   L i.m.k.d.b.n.k.p.s.p./ H < p - f Q Y @.B ",
"< N H i.V J ~ V / J A H / f.+.    fXyXU.  # Y.|.'.Y.  . %X%X%X%X%X%X  U.U.%X3XI.U.#X%X  } p.d.k.n.g.u.s.p.u.X.F f = p d B T J.s ",
"M N A v.K ) g.K / H V / J o.  eXyXy.t ~.0 E.`.W.T.@ OXOX* %X%X* %X%X  #X#X1XI.I.U.#X%X  x d.k.D.D.n.v.v.s.a.o.F , p f p { d :.d ",
"C N N / C K N / H / ^ m.W n   yXfX  8 Y.Y.Q.|.Y.0 . %X@X  %X%X  %X%X  %X%XU.I.U.U.#X%X  4 m.P.P.F.D.g.k.L u.o.^ g u d f ( = p y ",
"~ N s.d.N N ~ J } p.C /     (.9   i.            * %X%X%X%X%X%X%X%X%X  U.U.U.U.U.U.#X%X  x D.K.D.j.D.s.~ G K l.^ I I Y T h.Q a p ",
"5 H H V } G C / / C u.N     T.@   )     3 3     % %X_ ` %X_ _ %X_ _   U.U.U.;X;XU.#X%X  4 P.1XS.x.o.s.u.K / l.a T W f B I U <.k ",
"N K G G } 7 J K i.K k.u.      } L u.    eXy.    % %X  . %X    %X      U.U.U.&X%XU.#X%X  n b.S.d.( ! m.m.J M D B d f p I { *.R { ",
"G } 3 G 6 7 p.d.j.} i.g.W / i./ u.s.    %X`   %X%X%X%X%X%X%X%X%X%X%X  U.U.U.+   U.#X%X  4 d.j.^ ) d.^ ^ ^ H 2.f I Q y f 8.{ j y ",
"G s.L.L L 5 p./ i.p.i.i.m.s.L.L J }     +X_   +X+X+X%X%X+X%X%X+X%X%X  U.U.U.+   U.#X%X  4 :.z.:.( Q z.h.T T Q a d f W j { j y y ",
"6 7 J y.p.L G / i./ m.g.s.g.u.p.u.                  %X$X  %X%X  %X%X  U.U.U.+   U.#X%X  c K.z.h.c.h.T s d B :.2.y = y j _ j y y ",
"6 G L } u.G G } J N K i.i.) rX1Xg.  eXfXfXfXfX  % %X%X%X%X%X%X%X%X%X  U.U.%XO           n U ( Y ;.( Q P R d k I Q k y y j v j = ",
"G G u.K K L L i./ p./ s.) / 3XD.n   eXfXfXfXfX  % %X%X%X%X%X%X%X%X%X  U.U.%XO           <Xa U ! T :.( { ;.E k f R k j j y j <.y ",
"K 7 6 6 G u.p.i.i.M.g.A.b.^ ^   n Y..XwXwXwXwX  % %X  . %X    %X      %X%X  $X$X%X%X%X  b B U ;.T S ,.( +.O.>.I I u k j j R ;.y ",
"p.G 7 G 3 G K u.g.i.i.i.! U U ( V.  r |.%XF.|.  + .XwXwXwXwXwXwXwXwXU..     ].|.|.W.Y.  m B U ( U T ( O.h.,.S.R d f R R k j k y ",
"K 2 2 K } s.p./ H d./ J B B Y z.S   r |.%X4X|.  + 4XwXwXwXwXwXwXwXwXU.o     ].|.|.W.Y.  c ! I ( S +.S I O.O.{ q.8.{ R 2.f p u B ",
"u.K L K G u.J s.i.J } ~ U V ( D (   8 Y.X # Y.    . wXwX            wX.XU.  q Y.|.W.Y.  a U U ;.O.I ( +.h.d.<.{ j p U d.T h f k ",
"u.y.} u.} L L j.} } u./ V U c.D B U @ @ . X o q.G.X wXqX  r.r.<X<X5 > qXqX  o @ $ @ o m :.( Q ! U +.j.d.d.) :.<.k k P U :.O.( d ",
"u.u.u.u.s.K p.i.i.K ~ D H D U S U U           D O.  wX0X  r.<Xa r.W   wXwX            S T ! ! ~ U ) d.d.d.U ( E d p p p ( ( ( R ",
"v.s.| p.u.u.L } H N / H V V S I S ( S ^ 4 d.N.a X.  wX0X  6 r.W 4 r.  wXwX  4 k { Q U U < ; U ( ! ^ ) ) ) U = ! P a p U h.( U B ",
"} F.p.y.K 7 u.i.} J } p.! D s z.I T D N ^ f.M B .   wX0X  W =Xm 4 m   wXwX  O.k a B j.h.~ V } ~ ( ) ( ~ d.( P <.U B I z.Q ( B H ",
"} 3 } p.s.L L G ~ / / j.H / H S S f s B < N )       wX0X  r.r. .      wXwX  N.U :.) ^ g.K.d.) ) ) ( ! U U ~ <.h.U P ( ( U P ) j.",
"} N H K 7 N J H J 5 / ~ C H H U T a , M m m   fXaX(.(./.  r.L   fXfX(.(.).  S.! } } ~ ~ b.) ~ ) ( E E U U U h.! I U ! ,.:.P ! n.",
"} : : ; 5 5 H / J j.} V M J J ~ Z < = M V M   sXpX).).).  W r.  fXsX).).(.  ) ~ } ~ } ~ } V ! ) U I E T B T P.F Y B U ( m B V C ",
"3 } C m ; / / C a B E a - 4 m B ! s a M ! ) D V m U m ! ) W ! U ) D S.p E ( ~ k.d.~ } ~ i.} ! ! m u Q h I B F ..O.S S U V ( ! ; ",
"} : 5 ; ; 4 V ( a p P P h p s p p , s V < < ; I V ! S B S.a B B D U D p p T ! ~ } d.~ K.P.J V ( - p = d S ,.X...T D S 4 ! m m - ",
": 3 : : * = ( d p d , S f S h s f g T V f.! B S U ,.S s s s O.Z Y U Z S I I D ( d.j.d.~ +.i./ D Q , a I f S ..,.Y U U H ! V ~ ! ",
"} K K 5 - = B p a p = S h Y c g g x p I I U S U B ! T T Z ( U O.( S U S T U :.i.b.j.g.) j.m./ v.l.^ Z D f Z z.>.O.X.( i.) i.C - ",
"p.u.G G - & s ; U B f f Y ..h g Y Q T T :.h., I I ( ~ +.S +.( >.X.Z h S ! Y h.:.:.X.x.l.s.s.} v.k.i.J ) B Y h Q ;.( d.g.p.p.K N ",
"K y.7 2 & & - ; ; ; - - 6 1 & & 1 D J D F B h a s s X.o.Z S S B ,.,.F Z Z 1 T X.A a.o.@.X.H.u.s.u.H / i.! ! T +.^ / K l.s.k.n./ "
};
