/* XPM */
static char *e61422d9730b437caafde9cc50eeca49Dj7ucUxjUdXzvNOv[] = {
/* columns rows colors chars-per-pixel */
"64 64 230 2 ",
"   c #0E182D",
".  c #0B193A",
"X  c #161C36",
"o  c #1B1D3A",
"O  c #221F34",
"+  c #0F223A",
"@  c #14223D",
"#  c #1D223B",
"$  c #1C263C",
"%  c #222536",
"&  c #23253D",
"*  c #28263E",
"=  c #26293C",
"-  c #2A2D3D",
";  c #2D323E",
":  c #4F3A25",
">  c #513D28",
",  c #4B4009",
"<  c #5A432B",
"1  c #63492D",
"2  c #6F502F",
"3  c #694E30",
"4  c #6F5231",
"5  c #715534",
"6  c #755939",
"7  c #0A1946",
"8  c #0F2346",
"9  c #0B2F4E",
"0  c #142344",
"q  c #1B2542",
"w  c #1C2A45",
"e  c #152849",
"r  c #1B2C4B",
"t  c #17324B",
"y  c #1D334B",
"u  c #162954",
"i  c #1C2D52",
"p  c #0B3358",
"a  c #153355",
"s  c #1D3353",
"d  c #133559",
"f  c #18395A",
"g  c #222643",
"h  c #252A44",
"j  c #2A2C43",
"k  c #242748",
"l  c #242D4A",
"z  c #2A2E4B",
"x  c #302E4A",
"c  c #233145",
"v  c #2D3244",
"b  c #24324C",
"n  c #2C334C",
"m  c #2D394F",
"M  c #323445",
"N  c #32344B",
"B  c #35394C",
"V  c #383849",
"C  c #3A3C4E",
"Z  c #252E50",
"A  c #243453",
"S  c #2B3552",
"D  c #243A55",
"F  c #2C3A54",
"G  c #24365C",
"H  c #2A3758",
"J  c #253C5A",
"K  c #2C3C5A",
"L  c #323653",
"P  c #383756",
"I  c #343B53",
"U  c #3B3C53",
"Y  c #333D5A",
"T  c #3A3D5A",
"R  c #0F3860",
"E  c #173D64",
"W  c #2B3E61",
"Q  c #403E5B",
"!  c #1D405B",
"~  c #28544F",
"^  c #244259",
"/  c #2C425C",
"(  c #354357",
")  c #3D4154",
"_  c #33435D",
"`  c #3D435B",
"'  c #3D4A5D",
"]  c #0C4069",
"[  c #1A4469",
"{  c #1B4A74",
"}  c #1C4B77",
"|  c #264262",
" . c #2C4362",
".. c #2B4966",
"X. c #24456A",
"o. c #244B6D",
"O. c #334562",
"+. c #3C4561",
"@. c #344964",
"#. c #3C4B64",
"$. c #38456A",
"%. c #344C6B",
"&. c #3B4C6B",
"*. c #2B526D",
"=. c #35526B",
"-. c #3C526C",
";. c #234B74",
":. c #2A4E73",
">. c #354C72",
",. c #2C5374",
"<. c #285479",
"1. c #345574",
"2. c #3C5472",
"3. c #355876",
"4. c #3D5A74",
"5. c #345B7B",
"6. c #3C5C7B",
"7. c #2F7E6F",
"8. c #366D77",
"9. c #40554C",
"0. c #424455",
"q. c #43445B",
"w. c #494759",
"e. c #45495C",
"r. c #4A4C5E",
"t. c #785E41",
"y. c #4F6759",
"u. c #7D6347",
"i. c #776548",
"p. c #736C55",
"a. c #424662",
"s. c #444B63",
"d. c #4B4C63",
"f. c #434D69",
"g. c #4A4D6A",
"h. c #524E63",
"j. c #4D5165",
"k. c #47566A",
"l. c #43536C",
"z. c #4D536A",
"x. c #515364",
"c. c #53546B",
"v. c #595569",
"b. c #55586D",
"n. c #5A5A6D",
"m. c #415672",
"M. c #4B5571",
"N. c #445C75",
"B. c #4C5A74",
"V. c #445D7B",
"C. c #4B5E7A",
"Z. c #555B72",
"A. c #545A77",
"S. c #5B5D73",
"D. c #625F73",
"F. c #487361",
"G. c #46627A",
"H. c #4B637D",
"J. c #556377",
"K. c #5C6275",
"L. c #53647B",
"P. c #5C627A",
"I. c #76776A",
"U. c #616275",
"Y. c #63647A",
"T. c #63697D",
"R. c #777E74",
"E. c #8A663C",
"W. c #926C3F",
"Q. c #926D41",
"!. c #8A714F",
"~. c #A77953",
"^. c #378275",
"/. c #36917F",
"(. c #4D867A",
"). c #55897C",
"_. c #958D72",
"`. c #2E5C84",
"'. c #345B82",
"]. c #3A6280",
"[. c #4B6583",
"{. c #496787",
"}. c #4D6983",
"|. c #546B86",
" X c #546C84",
".X c #587289",
"XX c #527391",
"oX c #656A82",
"OX c #64748A",
"+X c #727687",
"@X c #677B93",
"#X c #379180",
"$X c #568B82",
"%X c #4A9389",
"&X c #5C988B",
"*X c #5A9A98",
"=X c #6D8997",
"-X c #6DA398",
";X c #768DA6",
":X c #59A4A7",
">X c #7CB8AD",
",X c #6AAEB9",
"<X c #7ABBCF",
"1X c #888A9B",
"2X c #949598",
"3X c #95A19F",
"4X c #8897AB",
"5X c #8CABA3",
"6X c #8CADAA",
"7X c #97A6A3",
"8X c #88B2B4",
"9X c #A3ACAA",
"0X c #A5B4AD",
"qX c #A8BEB8",
"wX c #DACFB9",
"eX c #85B9CE",
"rX c #82BCD2",
"tX c #8ABCD1",
"yX c #85C4DD",
"uX c #8AC5DC",
"iX c #94C4D9",
"pX c #9ACADC",
"aX c #A9CCD8",
"sX c #B6DADE",
"dX c #C7CECC",
"fX c #D1D2D4",
"gX c #D3E3D8",
"hX c #E8E9D9",
"jX c #D6E8E0",
"kX c #F3F5E1",
/* pixels */
"9 a a d p R R o.8.<.} } } <.`.`.} } ] `.;.[ ,.5.].,.<.5.5.'.[.{.{.H.|.%.H.2.[.@.N.O.M.` +Xz.M v % M ) 9.0.M V d.) C C O ; 0.9.V ",
"J 9 f E [ <.[ [ <.5.<.[ { } } ] { `.E ;.{ 5.,.,.XX5.8.{.{.>.6.[.[.m.{.V.V.-.%.O.M._ T Y a.j ; ) v ) C 0.) 0.) 9.) B v ) B ) 0.; ",
"a a d p p XX*.o.E o.[ } ] } `.<.[ ].X.R :.,.,.,.3.5.].XX[.>.2.1.m.m.V.m.C.N.2.C.K ( L z N M M C B 0.0.) ; - M 9.B M e.9.; 0.Q ; ",
"u a d f d o.*.! f *.[ [ } `.{.5.:.:.R ;.,.3.,.o.:.6.6.].1.>.[.%.[.[.2.m.[.[.&.&.h L I = j.v ; e.) ; ) e.B = C ) V ) ) ; - ; ; D.",
"a ^ ! f f 9 f ! f 1.5.{ p E { p X.5.p [ [ X.[ '.5.X.2...].[.V.;X;X[.J ..m.&.K A.Z.` C j N 9.) = M 0.B ; ; ; ) r.) r.0.- % - % V ",
"t ^ ^ t ^ t s ..5.<.;.E R [ d p d f W R *.[ X.X.E X...XX4X;Xm.-.4.@.&.A W O.H.s.s.I N L N ) ; V b.0.B ) M B ) 0.= v v = ; x.) C ",
"..^ | t =.^ / G.:.'.:.E [ p R R d f W X.*.3.6.3.*.5.}.=X}.}.*.m.m.m.&. .4./ _ k.z N T v v M B M 9.0.C v ; M K.) r.K.) n ) I ) e.",
"..s t ^ ^ ..*..XN.,.E f E p E p d X.X.>.6.@X}.}.6.@X@X|.G.V.3.4.&.m./ @.&./ ' ' Y n q.j.m - v M U 0.j.B ) r.' r.e.b.e.q.d.q.s.` ",
"y / + D ^ / 4.G.=.f 9 d a u E '.8.6.3.{.3.V.4.@X=X{..XG.2.N.%.O.&./ / &._ _ #.( ( c v U c - ; M V - C B e.c.) s.e.) C T.B ) q.v ",
"@ y D F ^ s V. .| | X.a d >.:.5.1.*.6.4.%.&. XXX=X6.G.H.2X2X2X2XdXfXfXfX_ ( c ' m m Z.C ) M v v C 1X) d.a.) K.` 0.0.) z.d.1Xb.N ",
"D ( K _ _ y  ./ V.%.V.{.| | 2.*.*.3...-.2.N.=X=X1.4.G.{.2X9X9X2XdXdXfXfXI ( n ( m e.` n ) V C U s.j.j.d.d.oXb.C ) 0.q.U v M 0.r.",
"y 4.@.D _ t G s O.&.J s s /  .*.1.4.1.G.G.4..X|..XV.}.|., W.W.E.2 6 u., v N v d.j.r.) ) e.' s.e.' k.z.z.z.Y.q.) e.' e.a.( ) e.r.",
"( #.y y K K J A %.D D s J  .4.4.=. X XH./ m.G.|.H.H.G.}.W.W.W.6 2 5 u.4 x N v U e.j.z.) K.m ( ( ' J.k.Z.b.r.b.j.j.` ` z.) ) b.C ",
"b b y b N.K K  .O.A  .D O.K OX&.4.L.k.4.=.%.G.N.H.N.N.G., W.W.5 2 2 5 , q.N % U B ' s.v I S #.e.' M.#.s.z.` b.z.s.q.e.s.b.B k.K.",
"y c / y _ J %.K  .$./ s F G.L.B.l.#.OX.XJ.l.B.@X.X XL.B.~.W.W.4 4 5 u.5 N N v - U U T g w m k.=XB.k._ ` ) I q.` e.I j.I U B C r.",
"/ ^ D _ @. .W O.}.J _ / / s ' L.oXb.=XF #.#.B.oXl.;XM.L.eXiXiXrXyXyXyXyX# - v 0.K.N h ) c B.f.f.#.B.k.Z.s.` e.e.z.' n ) s.I ( e.",
"/ J J _  . .&.O.&.-.@.G.#.S _ @.' L.k.' _ N.l.@XB.C.B.J.tXiX/.rXyX/.yXyXM v C j B I N q.m k.C._ l.l.B.z.e.j.s.( b.j.' U e.j.z.K.",
"s s y t %.O.&.V.L.m.&.@./ ' / ' ' B.M.#.( +.f.S.M.S.S.Z.sXiX/.sXsX,XyXsX, N N z q.U L a.b +.s.#.OXs.l.s.e.z.s.I ` ) s.v s.T.K.z.",
"e | H.s &.| / @.m. Xl.@._ -./ G..XC.f.L L a.g.T L A.oX, iXiX/.sXjX:XyXyXyXI % N I U a.L b +.Y _ M.#.B.#.) s.b.` e.e.I j.U e.` +.",
"OXy N.N.@. ./ @.-.#.-.F / @._ J.e.K.g.a.z T q z l g.q.eXiXiX/.yXyX#XyXyXyXC I x ` I +.` _ #.#._ _ l.f.z.` I s.s.F I K.n ` ` +.f.",
"2.%.=.H.D @.m.@.O.C._ _ K &.O.k.P.q.a.L T l T z n T d.rXiXiX<XyXyXyXyXyXyXL L a.I a.g.I A Y K S C.Y ' ` s.P.b.T.b.z.c.` ` I I +.",
"2. .G.[./ @.N.@.%.L.@.S K K Y ' ( N q.S T T S L z T j Q.W.W.2 4 4 4 i.i.5 T a.s.e.s.( L n l.( n f.l.#.( z.Z.s.q.s.` e.I v I Y a.",
"6.4.|..XV.-. X%.O.m.#.b ( c  X) l ` K.K.s.q.U n +.L N W.W.W.4 4 4 4 6 !.5 +.T ( ) ` q.s.n T Y T n a.oXe.e.K.I I ) ( N a.L L L a.",
"4.V.XX{.|.4.=.....l.#._ K _ #.b I L s.Z.e.q.v z g.N j W.W.W.4 4 4 4 5 t.5 T T s.I e.s.` S.L T T Q T e.U ( e.z.v T +.` M.a.T M.A.",
"V.1.| | :.5.1.1.%.&.O._ D h M.w X o g N j n X X M +X0.W.W.W.2 4 4 4 5 u.6 , T T z.d.a.U L I d.g.B e.` I ` I h T S K Y ` +.L Y +.",
"=... .a W a ..| @. .O.O./ @ F S @ ( j Z.# % % M d.x., W.W.5 2 2 4 4 4 u.u.4 Y g.Q d.d.q.q.Q U Q S.C ) M j q.+.S H A W _ L.' #.a.",
"/ %.%.W  .J | ^  ./ C.K H A &.h w I v # j h n n ) r.W.W.6 4 4 4 4 4 4 4 u.5 a.oXd.d.d.d.d.Q U Q S.+XU.) e.) j.U Y H K $.` F Y ` ",
"=.%.$.f %.G / @.W _ @X+.F _ b l v v m = j v e.q.n ) W.W.4 4 4 4 4 4 4 4 2 5 a.a.d.w.a.S.d.U q.q.U d.V V r.V ) C S u s Y M.' Y M.",
"OXG.4.^ D J A #._ K OXP.OXk.a.S I B V N M v C B B Q.W.W.E.2 4 4 4 4 2 2 5 5 4 a.d.d.g.d.Q U U r.e.Q C w.w.0.w.x.Z.l X K _ S f.I ",
"G.H.#.G.-./ -.m K M.( #.T `  Xz.e.I j j N v B ) W.W.W.W.4 2 4 4 4 4 4 5 u.u.5 5 z.c.x.e.Q U e.N d.U w.r.0.Q 1XD.0.= X v m ' @.L ",
"#.( ( / #.@.y D c h K S Y a.A.I ` I U N = C V , W.W.W.2 4 4 4 4 4 4 5 2 5 u.u.5 2 d.d.0.h.x.U 0.n.) w.n.x.0.0.V C M e.M I K _ n ",
"=.^ @.F ' K S F Y K ( I a.a.P P z.U U B U M v W.W.W.6 5 4 4 4 4 4 4 2 5 5 t.u.6 4 c.c.c.w.d.r.r.S.C v.v.h.w.C w.U N B v m S k.Y ",
"l.K Y Y _ H K #.m F ' B K.z.P U 0.P U * 0.Q 0.2 4 t.p.p.p.I.I.).R.R.R.I.p.p.!.u.2 Y.Y.x.d.h.S.v.r.D.D.v.x.r.r.w.U N N j I -.l.b ",
"m.k H S M.q z ` m w I L s.a.q.q.0.L w.* V M Q eXpXpXuXyXuXuXuXyXyXyXyXyXrXuXpXiXtXY.D.U d.d.d.w.g.D.n.h.r.w.d.w.T j X N I _ F n ",
"n A T z Q j x B = ) n z T L N V U U N N Q * N tX*X*X^.7.7.7.^.*X,X<XuX7.<XuX$X$XtXw.g.q.d.b.q.Q v.D.v.n.v.j.v n g l q l b _ ' K ",
"j ( U x T j j x ` T.x.n L T 4XI U U N M Q V V eX*X*X7.7.7.^.,XyX7.<X^.7.^.,X$XH.tXc.d.c.Q b.c.a.v.v.h.w.r.e.U N q @ . w K A ' l ",
"# j n q.x N C z U N M N U q.` q.d.c.d.e.Q w.Q eX*X%X7.7.^.7.7.uX^.yX^.^.^.^.(.(.tXb.v.c.Q Q a.h.v.d.q.r.w.0.) m r + 0 0 b H L.w ",
"j j M c.U U d.B U N j U U U U b.d.Q U Q r.Q x.eX*X%XuXuXyXyXyXyX<X<XyXyXyX^.).(.tXd.d.U D.a.c.S.S.v.h.x.r.e.) b 0 0 r 0 W w ` r ",
"N j j P x N - U N U I b.c.Q U Q B P U q.Q w.Q eXaXpXuXyXyXuXgXpXkXyXyXuXyXuXiXiXtXU c.Q w.v.Y.Y.D.S.d.h.C 0.) ( r + e r Y . 0 7 ",
"P & e.r.j j P P Q w.M P x U w.Q d.Q b.h.d.h.Q eXpXpXyXyXjXkXjXkXyXyXkXyXyXuXiXiXtX` a.q.c.S.D.S.g.S.w.C M V j.I H A D F f.K 0 0 ",
"* N x x Q x N P U x q.x - j o S.d.P d.q.c.d.w.kXdXpXyXyXyXyXyXyXsXyXyXyXpXkXwX&X/.- ` ( oXoXoXA.z.) r.) N U j.w D J r y S H $.i ",
"j C C ; 0.- V C q.N x.0.U Q 0.0.C q.d.Q g.D.g.kX5X5XhXkXyXyXyXyXyX8XyXyX5X5X&X&X^.~ Y I g.M.A.a.I I Z.b.N h n l e e 0 H K W G W ",
"M Q ; ; * v q.r.h.U 0.d.w.U w.U Q w.w.e.U c.g.tX5X>XyXyXyXyXyXuXW.= kX5X5X-X).).$XI T L L ` g.Y T +.I I U m f.r H H 7 e >.W u 7 ",
"M w.D.C C % q.U q.d.Q q.c.q.Y.C C Q M T P d.0.7X5X5XyXyX>XyXyX# W.W.i.6X/.-X-X(.^.I a.L T a.f.+.K Y j.l.S F K 0 0 s J u W u 7 7 ",
"= - C 0.w.Q ; C q.U Z.d.w.d.w.w.0.w.Q k L Q T 5X5X5X5X5X>X>X>X& W.gX_.(././.).(.^.L I T g.P.f.l.M.#.K w 0 l O.$.0 7 7 u u u 7 7 ",
"- M C C Q ; V 0.B j V w.a.U 1XT.d.x N a.T k P 5X5X5X5X5X>X5X5X& i.W.W.wX/.(.).).7.g.P P T S F H @.Y K l H i Z A W u 7 7 u G u 7 ",
"; V w.V V C C q.U w.C r.P ` +XZ.U Q P L P S P 3X5X5X5X5X>X5X#XW.W.i.W., ^.^.(.(.7.L S P L q S I F O.Y W O.H i r Z i u u 7 u W 7 ",
"C - % = M 0.w.q.q.n.d.Z.c.I Y g z P z z T T T 3X3X3X3X3X&X^.7.Q.W.W.^._.^.^.(.(.7.` T a.b l H _ S n #.Y _ T O.S G 8 u u u W T 7 ",
"0.; ; M M M V q.d.Q q.q.Y n S K q L z U N ` s.$X-X-X%X~ 7.7.& Q.W.W.~ ^.~ ~ F.y.7.A b a.Y l A Y F S Y Y f.#.C.A u r G G i i i . ",
"V % % V C r.w.C N r.P B l l F l.n S L 0.` n +.F.W.E.2 W.W.& & & _.8X% 9.9.y.n.y.F.A A Z q Y S K b ' b S _ O.Y 2.>.Y H &.u 0 0 i ",
"Q Q Q ; M 0.U w.Q U U U n z Y b I g h U N L ( qXW.W.5 W._.= = g 8XyX- 3X5X7X0X7XqXA i . q S S ` _ A Y +.a.a.+.W u 0 A a.H l e Z ",
"< 0.0.Q Q C C d.U 0.q.P z L k.m b S L ` C z l qXE.E.4 W.0X& g q yXyX% 3XqXsX0X0X7Xe 0 7 +.Y H Y S +.d.+.a.` $.$.u i Z S +.@.K e ",
"( 0.0.0.w.V w.q.Q B P N S z S b S S F U Q L z Q.W.Q.5 5 5 5 6 5 5 5 6 5 4 5 u.t.2 A r b S L H Y n ` a.a.a.z Y H e 0 0 @ Y Y K A ",
"x.r.0.w.0.0.C Q N j U N z z n A b Y b I % a.M.W.W.W.2 5 4 4 4 4 4 4 4 4 2 5 u.t.4 W A H q o L P L I T a.T L . Y Z q 0 F s._ A Z ",
"0.D.0.0.V ; 0.q.q.N Q q.S L w l.D S A j I d.l Q.W.W.5 2 4 1 1 < < < 1 1 3 6 !.6 4 z g.d.P z Q L Y Q Y H a.T Z +.A l H f.K H z B ",
"C M Q w.r.C C M B Q B c.N U n b l l q l # h I E.3 < : : : : : : < : : < : : : > > T L d.S.a.T T P W L L z Y $.$.S Z K Y S Z T c.",
"Q x V N ; j B N N * T P N N N n F 0 @ h q h L T < < : : : : : : : : : : : : : : Q Q P P c.P T T H Y L A n S s.F S S K +.` Z L c.",
"M O O o * * x U B g.T z h N L I c $ . j z h z z n g L T T g.S ` _ ' oXn F +.T P a.P P P q.x P T S A H H k K T.n F r n Y k l z x ",
"x Q x g o U P N g l L q X $ g l I q q h L T z z g A q L Y L N L Y n M.0 K Y L h.a.P Q P q.U L z k + K y F w ( K _ b n L z T L o ",
"Q O * o o & z P q 0 Z Z b $ w 0 0 @ w z o q # A l L z h A.g b l b m n 0 0 L H P Q a.P Y.oXB z T X 0 . e b -.( K K b c q L q k o ",
"O * * o . . I e 0 w X y r y y w r y F z f.I l b S #.b k $ w Y b F S b b H b S I a.g.a.P ` q.T n K @ 0 A w b  .#.S S A N n z T x ",
"Q > M = X . l 0 e 0 . A y D s t t s 8 A Z S b S n S F S b _ S _ / b S b S S #.+.g.g.d.T j.Z.U j.z.I v m r y l.@._ Y T q.) q.x X ",
"0.0.V v X   r o z z r r D / y t b / / F +.f.@ b A _ I ` b _ K #.( c w b K m f.+.e.( z.j.e.j.C c.h.0.B T k F l D ' K q.d.e.w.P j ",
"; 0.M %     X o o o X X = $ +   w v V n n y y q w w ) ( c b n l @.' m c c $ F ( v ' ) ' ) K.0.w.w.N U Q L F F ' ( I C j.r.x.v.C "
};
