/* XPM */
static char *_aeee58bfc004119e11c379bab0e6e7712eZs71WpFcZFHE2[] = {
/* columns rows colors chars-per-pixel */
"64 64 222 2 ",
"   c #000000",
".  c #060609",
"X  c #140D0C",
"o  c #01151C",
"O  c #1D1916",
"+  c #310B00",
"@  c #003E04",
"#  c #001821",
"$  c #0E192D",
"%  c #0B193A",
"&  c #131035",
"*  c #161B37",
"=  c #1B1D3A",
"-  c #221F34",
";  c #002532",
":  c #0B233E",
">  c #002C3C",
",  c #14223D",
"<  c #1C243B",
"1  c #2E2E31",
"2  c #24253A",
"3  c #262A3C",
"4  c #2A2D3D",
"5  c #4F1200",
"6  c #4F2D25",
"7  c #004000",
"8  c #156A00",
"9  c #007400",
"0  c #405700",
"q  c #5E7F00",
"w  c #1A0F47",
"e  c #0A1946",
"r  c #1A1248",
"t  c #0C2546",
"y  c #142344",
"u  c #1B2542",
"i  c #1C2A45",
"p  c #152749",
"a  c #1B2C4B",
"s  c #02374D",
"d  c #17324B",
"f  c #1D334B",
"g  c #072C50",
"h  c #162954",
"j  c #1C2D52",
"k  c #093558",
"l  c #153354",
"z  c #1D3353",
"x  c #1A3D57",
"c  c #133559",
"v  c #18395B",
"b  c #222543",
"n  c #242B44",
"m  c #2A2C43",
"M  c #242D4A",
"N  c #2A2E4B",
"B  c #302E4A",
"V  c #2E3243",
"C  c #24324D",
"Z  c #2A364B",
"A  c #2C334C",
"S  c #323445",
"D  c #33344B",
"F  c #35394B",
"G  c #383849",
"H  c #3A3C4E",
"J  c #232E50",
"K  c #243453",
"L  c #2B3552",
"P  c #253A55",
"I  c #2C3A54",
"U  c #24365B",
"Y  c #2A3758",
"T  c #253C5A",
"R  c #2C3C5A",
"E  c #323653",
"W  c #383655",
"Q  c #343B54",
"!  c #3B3C53",
"~  c #333D5A",
"^  c #3A3D5A",
"/  c #27166B",
"(  c #2B1977",
")  c #053F60",
"_  c #0A3D65",
"`  c #0D3C6D",
"'  c #173D64",
"]  c #163979",
"[  c #19387D",
"{  c #253F61",
"}  c #2C3D61",
"|  c #403E5B",
" . c #004159",
".. c #1D405B",
"X. c #3B404E",
"o. c #244259",
"O. c #2C425C",
"+. c #3D4154",
"@. c #33435D",
"#. c #3C435B",
"$. c #3A475B",
"%. c #0C4069",
"&. c #1A456A",
"*. c #1B4A74",
"=. c #1C4B77",
"-. c #2C4362",
";. c #284665",
":. c #244B6E",
">. c #334562",
",. c #3C4562",
"<. c #344964",
"1. c #3C4A64",
"2. c #38456A",
"3. c #354C6B",
"4. c #3B4C6B",
"5. c #34526B",
"6. c #3C526C",
"7. c #284C73",
"8. c #334E70",
"9. c #2D5374",
"0. c #285479",
"q. c #3B5371",
"w. c #395875",
"e. c #335B7B",
"r. c #38607E",
"t. c #52504E",
"y. c #424455",
"u. c #43445B",
"i. c #494759",
"p. c #45495C",
"a. c #4A4C5E",
"s. c #686257",
"d. c #424662",
"f. c #444B63",
"g. c #4B4C63",
"h. c #424D69",
"j. c #4B4D6A",
"k. c #524E63",
"l. c #4D5165",
"z. c #44536C",
"x. c #4D536A",
"c. c #485569",
"v. c #525365",
"b. c #53546B",
"n. c #595569",
"m. c #55586D",
"M. c #5A5A6D",
"N. c #4B5571",
"B. c #455B76",
"V. c #495A76",
"C. c #445C79",
"Z. c #555A72",
"A. c #535976",
"S. c #5B5D73",
"D. c #625F73",
"F. c #48627A",
"G. c #596377",
"H. c #5C637A",
"J. c #606060",
"K. c #616275",
"L. c #63667B",
"P. c #AC2600",
"I. c #E83400",
"U. c #FB3800",
"Y. c #9D4C38",
"T. c #AB533D",
"R. c #FB4511",
"E. c #F86938",
"W. c #8E7B68",
"Q. c #CA6148",
"!. c #DC6A4E",
"~. c #EE6E4D",
"^. c #FB7452",
"/. c #FB7959",
"(. c #008A01",
"). c #009500",
"_. c #009D00",
"`. c #1F9C00",
"'. c #00AA00",
"]. c #98846F",
"[. c #A6907A",
"{. c #D9856A",
"}. c #FA8566",
"|. c #F6996F",
" X c #F99879",
".X c #2F1B82",
"XX c #2E2C96",
"oX c #263390",
"OX c #2F309D",
"+X c #392AA9",
"@X c #3C2BB1",
"#X c #402AB6",
"$X c #4528BE",
"%X c #522EB6",
"&X c #2E5C84",
"*X c #345B82",
"=X c #3A6280",
"-X c #4C6886",
";X c #526986",
":X c #52708C",
">X c #666A82",
",X c #65758A",
"<X c #6E788A",
"1X c #485EAE",
"2X c #4C3BCB",
"3X c #894698",
"4X c #758397",
"5X c #698AFF",
"6X c #888A9B",
"7X c #8E92A7",
"8X c #D5B99C",
"9X c #F4AD8D",
"0X c #F4C09C",
"qX c #D5C1A7",
"wX c #F4C8A7",
"eX c #F3D3B2",
"rX c #F4D8BC",
"tX c #CDDADF",
"yX c #F5DCC1",
"uX c #FBE3D4",
"iX c #F8EDEA",
"pX c white",
/* pixels */
"g l l c k c k :.e.*X7.*.*.0.0.&X=.*.&.*X&.&.9.e.=X9.e.e.e.r.e.-X-XF.;X3.F.q.-X<.V.>.N.$.<Xl.V V 2 G H p.y.S G l.+.H X.- 4 i.y.H ",
"T h v ' :.9.&.&.0.e.0.&.*.=.=.%.*.&X' :.&.9.9.x x x x x x x x x x x ;XC.C.q.3.>.z.~ ^ Q f.m V +.V H H y.+.y.H p.X.H V +.G H y.S ",
"l l c c k :X0.:.' :.&.*.&.=.*X0.&.*X;._ 7.9.9.                      V.B.C.V.q.V.~ @.E N D V S H F y.y.+.V 4 F p.F S p.+.V H +.G ",
"l l c v c 7.:...x 9.&.%.*.*X-Xe.7.7.c :.7.x x o # w w w w # # # w w x x x x 4.4.n E E 2 x.V V p.y.V +.p.G 3 X.H G y.+.S 3 S V M.",
"l T x l x d x x x 9.*X&.k ' :.k :.9.k &.      >  .$X$X$X+X . . .$X$X      4.I G.Z.#.F m F p.H 3 S +.G 4 V V F l.F a.y.4 2 3 2 G ",
"d o.o.d o.d x ;.e.9.0.' _ ' c k k v     s s s oX@X$X$X_ ] @X@X@X_ _   & +X.   f.d.Q D E D H S F m.y.G +.S G y.y.3 V V 3 V b.+.! ",
";.T ;.d 5.T ;.C.9.e.7.&.:.k c v c v      . . .OX$X$X$X .` $X$X$X . .  & $X.   c.N D #.V V S G S y.y.G V 4 S G.+.a.G.y.V #.! #.p.",
";.z d O.o.<.3.:XC.9.' c ' k ' k      . . .) $X$X$X . .$X$X$X`  .      o  .#X$X    Z u.g.D 4 V S +.y.l.G y.g.y.g.a.m.u.u.j.u.f.#.",
"f O.: P o.O.w.F.5.v g c l h ' *X     . . .) $X$X$X . .$X$X$X`  .      o  .#X$X    x x Q m 4 V S G 4 H F p.b.! f.u.y.H >XD +.#.V ",
"y C I I P P C.;.;.;.:.c c 8.7.e.     . . .) $X]  .$X$X$X+X ..             s  .$X$X    F +.S V V H 6X+.l.f.! H.u.u.u.! x.g.6Xm.S ",
"C @.I O.>.f >.O.C.3.C.-X;.;.q.5.. .  . ._ ` $X]  .$X$X@XOXs O X O O O O X s s $X$X    D +.G H ! f.l.l.g.g.>XM.F +.u.u.! m D y.a.",
"C z.<.P @.a U z -.4.T z z O.-.  ;  . . .$X$X$X]  .$X$X .s   Q./.eXeXeX9X/.X   $X$X    ! f.$.f.p.$.c.x.x.x.K.u.+.u.u.u.g.+.! p.a.",
"@.1.f f O.T T K 4.P P z T -.w.  ;  . . .$X#X[ oXOX$X$X# < ].9X9XeXeXeXwX9XT.Y.[ [ ( r   G.Z ~ $.1.G.c.Z.m.f.m.j.j.#.#.x.! y.m.! ",
"C C C C V.R R -.>.K -.P >.T ,X  ;  . . .$X#X .OX$X$X$X  1 eXeXeXeXeXeXeXeX}./. . .$X/   Q I h.1.$.c.1.f.x.u.m.x.j.u.p.f.b.F f.K.",
"f C O.f @.T 4.T -.<.R z Y V.G.  ;  . . .$X#X .OX$X . ./.Q.      eXeXeX[.       . .$X/   n Z N.4XN.z.@.$.+.Q u.#.f.! j.Q ! F ! a.",
"O.P P >.<.-.O.>.;XT >.O.R K @.  ;  . . .$X#X .OX$X . ./.Q.      eXeXeX[.       . .$X/   n V.h.h.1.A.z.V.f.#.f.p.x.#.D ! f.! +.f.",
"R T P @.>.-.4.>.4.6.<.V.4.P @.  ;  . . .      .X$X . ./.}.eXeXeXeXeXeXeXeXeXeX . .$X/   Z c.A.@.h.z.V.c.f.l.f.#.m.j.#.! p.l.x.H.",
"j z a a 3.-.4.V.F.B.4.<.@.@.O.  ;  . . .      .X$X . ./.}.eXeXeXeXeXeXeXeXeXeX . .$X/   C ,.1.1.,Xh.z.f.p.x.f.Q #.#.f.V p.L.S.x.",
"a -.C.z 3.-.O.<.z.;Xz.<.@.z.I   ;  .    U.I.  .X$X              eXeXeX[.          $X/   C 1.~ $.N.1.N.d.+.f.m.u.p.p.Q f.+.p.#.,.",
",Xf C.B.>.-.O.<.6.4.z.I @.@.>.  ;  .    U.I.  .X$X    J.t.# t.J.].].].s.# J.J.    $X/   @.1.1.@.@.z.z.c.#.! j.d.F ! H.A #.#.#.h.",
"q.6.6.F.P <.z.>.>.V.@.@.I 4.>.  ;  .    U.I.  .X$X    pXtX .tXpX      o  .iXpX    $X/   C ~ I L A.@.,.#.l.G.m.L.m.x.m.#.#.Q Q d.",
"q.;.C.-XO.<.V.3.4.F.>.I I I @.  ;  .    ^.~.  t _ !.!.rXrXqXrXrX8X8X!.{.qXrXrX!.!.$X/   A z.@.C h.h.1.^ x.Z.p.#.f.#.p.Q V E ^ d.",
"C.w.:X:XC.6.;X3.>.z.<.C ~ C H.  ;  .    /.~.  >  ././.eXeXeXeXeXeXeX/. XeXeXeX/./.$X/   Z ~ ~ ~ L p.>Xp.u.H.Q ! #.+.A f.E E E d.",
"w.C.:X-X:Xw.5.;.-.z.1.@.~ @.h.  ;  . . .      T./.eXeXeXeXeXeXeXU.U./. XeXeXeXeXeX$X/   S.E ^ ^ #.^ u.! #.u.l.V ^ ,.$.N.d.~ N.A.",
"F.8.;.;.8.e.9.8.3.4.>.>.P C N.  ;  . . .      T./.eXeXeXeXeXeXeXU.U./. XeXeXeXeXeX$X/   E E g.j.F u.#.! #.Q m ! Y R R @.d.E ~ #.",
"5.;.;.l ;.l 3.;.3.O.>.>.R , I   ;  .$X$X .s   T./.eXeXeXeXeXeXeXeXeXeXeXeXeXeXeXeX$X/   u.^ ! | S.! +.D m #.#.E L K -.@.G.$.1.d.",
"-.3.3.{ ;.T -.T -.O.V.Y P K h.  ; s $X$X_ k   T./.eXeXeXeXeXeXeX0X0X0XwXeXeXeXwXwX$X/   g.u.! u.K.<XK.! p.! j.^ ~ T } 1.@.I @.#.",
"6.3.<.z 3.K O.>.} @.<X@.P ~ C M     $X$X$X@X  T./.eXeXeXeXeXeXeXU.U.U.E.eXeXeX/./.$X/   x ! #.u.! g.G D a.H ! F Y p j ~ N.$.Q N.",
",XV.q.T T T K 4.@.R ,XH.,Xc.h.Z     [ [ $X#X> 6 6  X XeXeXeXeXeX|.|.|.9XeX X X3X3Xw & x x ! ! g.u.! +.p.a.y.p.b.Z.N % ~ $.I d.Q ",
"F.;X6.F.6.O.z.L I N.@.1.^ ,.>Xj.     . .$X#X .o   /./.eXeXeXeXeXeXeXeXeXeX}./.$X$X  . x ! ! p.S g.H p.a.y.H 6XS.y.3 * V L $.1.E ",
"4.I @.I 1.>.f I M M I L ^ d.A.E x x      .) $X]  .    /./././././././././.%X$X . .  . u.l.v.! y.S.! p.M.b.y.! H ! S p.V E I @.A ",
"3.P 1.I 1.O.I I ~ I $.I d.d.^ ! x.!      .) $X]  .    /./././././././././.%X$X . .    b.p.g.g.p.S.H n.n.k.i.+.i.! S F V L I c.~ ",
"6.P @.~ $.L ~ ,.L I $.F H.j.^ ! +.!      .) $X$X$X      + U.U.U.     .] $X)  .    x x v.g.l.S.b.a.D.D.n.k.a.g.u.! D D m Q z.z.C ",
"z.i Y L N.u N #.Z n E L f.d.u.u.x x      .) $X$X$X      + U.U.U.     .] $X)  .    K.K.! g.g.g.p.b.D.M.k.g.i.a.u.u.n * D Q @.P L ",
"Z L ^ N | m S Q n +.A N ^ E D F x   '.'.  .  .OX$X    U.R./.R.U.    $XOX ..       g.g.u.p.b.p.u.b.K.n.M.b.g.V D b M u N L @.$.~ ",
"n #.! V #.m n V #.L.v.V E ^ 7X!     '.'.  .  .OX$X    U.R./.R.U.    $XXX> @ 7     b.g.b.u.m.b.p.b.v.k.i.a.p.! D u , % i R L $.M ",
"< m S u.V D Q V ! D V D ! d.#.u.    '.'.  .  .OX$X    U.R./.R.U.    $X.X  _.'.    m.m.b.! u.p.g.b.p.u.a.p.y.! Z i y y i K P G.i ",
"m m S b.! ! g.D ! D m ! Q ! ! b.    '.'.).(.. g _     uXiXiXwX0X    _ t   _.'.    g.g.! S.p.v.S.S.m.v.v.p.p.#.Z y y i y } p >.i ",
"D m m ! m D m ! D ! Q b.b.#.! !     '.'.'._.  >  .    pXpXpXyXeX     .>   _.'.    ! b.! p.M.L.L.K.M.g.g.H y.! ~ a y p i >.% y y ",
"! 3 p.g.m m ! D u.p.S ! S ! p.u.    '.'.'._.          pXpXpXyXeXeXeX      _.'.    #.f.p.b.S.K.M.b.H.u.H S G l.^ K K P I h.R y y ",
"m S B N ^ D S ! ! S u.m m m 2 Z.    '.'.'._.          pXpXpXyXeXeXeX      _.'.    V #.! >XL.>XA.x.+.f.y.D ! l.i P Y a f L L 2.j ",
"m H G S y.m H ! u.D v.y.! u.y.y.    '.'.'._.  9 '.'.'./. XpXyXeX/./.'.9   _.'.    Q ^ Q j.N.A.d.Q Q Z.b.D n A M p i p K R } U } ",
"S H 4 V 3 V u.g.v.! y.g.u.! u.H     '.'.'._.  8 `.`.`.}.9XpXyXrX}.}.`.8   _.'.    E ^ E E ,.j.~ #.d.E ! ! Z 4.i K T e a 2.2.h e ",
"S a.K.H H 3 u.! u.g.u.u.b.p.L.H     '.'.'._.  P.U.U.U.pXpXpXpXpXeXeXU.P.  _.'.    ^ d.E ^ ,.z.1.~ ~ c.h.I P R y y j U h U h h e ",
"3 4 H +.i.H S ! u.+.m.g.p.g.y.i.    '.'.'._.  0 q q q J.J.J.J.J.t.t.q 0   _.'.    E Q ^ j.S.j.h.z.h.I i y a >.4.y % t h j h e y ",
"3 V H ! +.S D u.F m D u.p.! 6X>X    '.'.'._.  9 '.'.'.              '.9   _.'.    j.^ ^ ^ E I I >.~ I J U p j K R j e e t z h % ",
"S S y.G G H ! u.! u.H p.! #.<XS.              9 '.'.'.$X2X5X5X5X$X$X'.9           E E E E u L I I ,.~ >.>.R j a K a j h e h 2.e ",
"H 4 3 3 S y.p.u.u.M.g.Z.x.Q Q b               9 '.'.'.$X2X5X5X5X$X$X'.9           ^ ^ d.C N L @.I C 1.~ @.@.>.K U y z h h U -.% ",
"y.S V S S S D u.g.u.u.u.~ L I ~     /./.U.I.  .X$X$X$X          5X5X  5 U.^./.    L C d.~ N L ~ I I ~ ~ z.1.A.K a a U U j j j e ",
"S 2 2 G H a.p.! S g.! D M M I z.    /./.U.I.  .X$X$X$X          5X5X  5 U.^./.    K K M y Q L ~ C $.C L @.@.~ q.4.R K 4.a y y a ",
"y.H H S S y.H p.u.! ! ! A N ~ C     eXeX      1X5X    I n n     5X5X      qXeX    K j % u L L @.@.Z ~ #.d.d.4.} h y K d.Y f a j ",
"y.y.y.+.+.H H g.| ! p.! N L N.I x   ].].  .   1X5X    u C C     5X5X      W.].    y y : ,.~ I ~ L ,.j.,.d.^ ,.>.h j K L ,.@.~ p ",
"p.i.y.y.a.G u.p.u.! D D L A L C L x     +.x   1X5X    ~ i i     5X5X    a     p U z a C L E E ~ L ^ d.d.d.A R Y p y y , ~ ~ ~ K ",
"v.a.+.p.! y.H ! S m ! D N N C K C ~ x Q 2 d.  1X5X    I $.I     5X5X    a P i j } >.L Y u = E E E Q ^ ,.#.L * R K y y P h.@.C N ",
"| S.p.y.G S +.p.u.D ! u.E A i z.L I L n ! f.  1X5X    L L I     5X5X    I 1.@.j y N j.f.Q N #.Q ~ ^ Q Q d.~ K ,.C M L z.R R M D ",
"H S y.a.a.H H S ! ! ! b.D ! A C C M i M < m   .X$X    L Q #.    $X$X    d.,.N.Z ,.^ Q g.H.d.^ ^ ~ ~ E L A Q 2.2.L C ~ R L N ^ b.",
"H 4 D D 4 m H S D 2 ! Q S D S A I u , b u x   .X$X    x x j.    $X$X    Z d.N.E ^ ^ W ! b.^ ^ ^ ~ R Y L L L f.Q L L I ,.,.J E b.",
"G - 2 = 2 3 S ! D x.#.N n D Q Q C u % N N x   >  . . .    j.     . . .>   $.^ W d.W ^ ^ u.V E ^ L K P L i I L.Z I M L ~ b M N B ",
"S ! B b = ! ! D u M Y u * < b M Q u u m Q x   >  . . .    E      . . .>   ~ Q j.d.W | E u.^ L L M t Y C L n I @.@.C C L A ~ E = ",
"i.- 3 = = 2 V ~ u y K C C u i y , , i N < < < A M E A M A.u M M A L A y y P Q ^ | d.! K.>XD V ~ * y % y C 4.O.R I C C b F b b * ",
"3 4 3 = & % ~ i y u , C a f f p a a I A d.Q M C L 1.C i i i @.C L L C C K C Z Q d.j.d.! #.u.! Z I , , K a C @.1.I L L S D N ^ D ",
"H H G 3 = % M y i y % C C P K f d P y K K Y C I C I I I C ~ I @.~ C I C P L 1.#.x.f.g.^ j.S.! x.l.! m Z a C z.1.@.@.~ u.+.u.B * ",
"i.y.G V * % a * N M M i P @.f d z T R I 1.d., K K ~ Q #.C @.~ 1.@.C C C I I h.,.d.^ x.j.f.g.! b.l.u.D ^ b L C T >.~ d.g.p.u.D m ",
"G y.S 2 $ $ * = - = = * i < $ $ 2 V F A L i i u i a X.+.n C C C 1.$.Z n n < I @.V p.+.#.$.G.y.p.u.S ! u.E I I $.~ Q H l.a.v.M.! "
};
