/* XPM */
static char *e9f015c9668a4c4ac670895dad9e1f0dEkWXsSGOFdNElvMC[] = {
/* columns rows colors chars-per-pixel */
"64 64 233 2 ",
"   c #00081F",
".  c #060D27",
"X  c #04132E",
"o  c #0E142D",
"O  c #10172D",
"+  c #15192D",
"@  c #191B2C",
"#  c #010D34",
"$  c #031333",
"%  c #0C1633",
"&  c #061935",
"*  c #0D1935",
"=  c #0C1B3B",
"-  c #04153C",
";  c #141B34",
":  c #1A1D33",
">  c #131E3A",
",  c #1A1E3A",
"<  c #111634",
"1  c #0D203C",
"2  c #1D2133",
"3  c #15223C",
"4  c #1B233C",
"5  c #162133",
"6  c #222336",
"7  c #23253B",
"8  c #252A3D",
"9  c #292B3E",
"0  c #27273B",
"q  c #0B1D42",
"w  c #061942",
"e  c #0D2143",
"r  c #0C2C4C",
"t  c #072849",
"y  c #142443",
"u  c #1B2542",
"i  c #142A43",
"p  c #1D2A44",
"a  c #15254A",
"s  c #142C4A",
"d  c #1B2C4B",
"f  c #18274E",
"g  c #14324D",
"h  c #1C324D",
"j  c #072E53",
"k  c #162950",
"l  c #1B2C55",
"z  c #0D3253",
"x  c #0E365D",
"c  c #063158",
"v  c #133453",
"b  c #1D3352",
"n  c #1C3955",
"m  c #133A5B",
"M  c #1B3C5D",
"N  c #13365A",
"B  c #0E304C",
"V  c #222642",
"C  c #242B44",
"Z  c #2A2D43",
"A  c #242D4A",
"S  c #2A2E4A",
"D  c #2A2742",
"F  c #302E47",
"G  c #233046",
"H  c #2D3145",
"J  c #25324C",
"K  c #2B334C",
"L  c #2B384F",
"P  c #26384E",
"I  c #323346",
"U  c #33354B",
"Y  c #39364D",
"T  c #353A4D",
"R  c #393B4E",
"E  c #323846",
"W  c #233453",
"Q  c #2C3652",
"!  c #243A54",
"~  c #2C3A54",
"^  c #253C5B",
"/  c #2C3D5B",
"(  c #28365A",
")  c #323652",
"_  c #343B54",
"`  c #3B3D53",
"'  c #343D5A",
"]  c #3A3E5A",
"[  c #143E63",
"{  c #1B3F62",
"}  c #0F3C65",
"|  c #2A3B61",
" . c #363F60",
".. c #403E53",
"X. c #1F415F",
"o. c #39414E",
"O. c #25415B",
"+. c #2D425C",
"@. c #3C4154",
"#. c #34425C",
"$. c #3C435C",
"%. c #354257",
"&. c #1C4264",
"*. c #1B456A",
"=. c #154368",
"-. c #234363",
";. c #2D4562",
":. c #2C4A65",
">. c #244A6C",
",. c #2D4D6C",
"<. c #22476C",
"1. c #344563",
"2. c #3C4561",
"3. c #354A65",
"4. c #3C4A64",
"5. c #354C6A",
"6. c #3B4D6B",
"7. c #33456B",
"8. c #2F506D",
"9. c #35516C",
"0. c #3C536D",
"q. c #224D73",
"w. c #2A4E73",
"e. c #2B5275",
"r. c #2C557B",
"t. c #275379",
"y. c #335472",
"u. c #3B5572",
"i. c #3D5A75",
"p. c #345A7C",
"a. c #3B5B7A",
"s. c #325778",
"d. c #424256",
"f. c #43455B",
"g. c #49475D",
"h. c #44495D",
"j. c #494B5E",
"k. c #424662",
"l. c #494661",
"z. c #444B63",
"x. c #4A4D63",
"c. c #434D69",
"v. c #494E6B",
"b. c #514E65",
"n. c #435067",
"m. c #4C5166",
"M. c #45536C",
"N. c #4C536B",
"B. c #4C586E",
"V. c #46586E",
"C. c #525266",
"Z. c #53556B",
"A. c #55596D",
"S. c #5A5A6E",
"D. c #585769",
"F. c #435672",
"G. c #4B5572",
"H. c #435B74",
"J. c #4C5B74",
"K. c #445D7A",
"L. c #4C5D79",
"P. c #44567E",
"I. c #525671",
"U. c #535B73",
"Y. c #5A5D72",
"T. c #545E7A",
"R. c #5B5E79",
"E. c #615E73",
"W. c #45627D",
"Q. c #4B627D",
"!. c #5C6175",
"~. c #54627B",
"^. c #5B637C",
"/. c #58667C",
"(. c #5E606F",
"). c #626275",
"_. c #63657B",
"`. c #646A7E",
"'. c #686A7E",
"]. c #2D5A83",
"[. c #345E82",
"{. c #3C6282",
"}. c #376080",
"|. c #3F6C95",
" X c #456482",
".X c #4D6582",
"XX c #4E6984",
"oX c #496A89",
"OX c #536583",
"+X c #5E6681",
"@X c #5B6B84",
"#X c #536C8A",
"$X c #586C86",
"%X c #5B758D",
"&X c #58728A",
"*X c #4B7396",
"=X c #5C7491",
"-X c #557A9A",
";X c #5A6C90",
":X c #606681",
">X c #646C83",
",X c #6B6D84",
"<X c #6A6E89",
"1X c #626F89",
"2X c #61738C",
"3X c #6D748C",
"4X c #677388",
"5X c #73758B",
"6X c #74788B",
"7X c #647A96",
"8X c #747C93",
"9X c #7B7E95",
"0X c #727E9B",
"qX c #716F84",
"wX c #547FA9",
"eX c #5F819C",
"rX c #66839D",
"tX c #75859F",
"yX c #6988A4",
"uX c #7689A6",
"iX c #7B91AC",
"pX c #7B97B5",
"aX c #838598",
"sX c #898CA2",
"dX c #838CA4",
"fX c #8A9BB4",
"gX c #999CB2",
"hX c #9196AA",
"jX c #96A5BC",
"kX c #A2A7BC",
"lX c #8EA8C5",
"zX c #9FAAC0",
"xX c #A3B1CB",
/* pixels */
"t j t s.B =.1 *.p.p.>.=.=.q.[.q.=.=.=.].q.r.w.p.[.>.a.s. Xy.u. X#X.X#X:.#X5.;X3.G.Q T.@.dX,XT 9 E o.9 (.j.8 E h.o.E o.5 @ o.j.E ",
"N z >.{ X.X.=.*.p.eX=.*.t.=.c =.t.=.=.c x *.[.r.-Xe.{.y.-X Xu.=X.Xu.K.K.7.b P.1.F.2.OXC m.7 9 @.9 E 8 H o.o.`.E o.o.E (.9 E 6 d.",
"v t k m X.=.s.p.=.=.=.=.=.=.|.r.q.t.*.e.r.-Xe.w.8.oX*X X Xa.K.u. XP.u.K.P.3.F.1.! 4.A 4 m.2 A.7 2 A.E 8 @.o.9 A.o.j.h.o.E 6 E (.",
"g t t m X.X.&.q.=.r.X.=.=.].eX].j *XN q.{ &.w.w.y.s.s. X#X8.7X:.K.XX=XK.5.5.4.! > J %.H 3XH j.Y E (.qXH o.2 E o.!.@.9 o.6 @ 6 ).",
"s t X.1 v B B X.t r.r.c t.=.=.c r.=.t &.X.X.X.p.p.X.8.a.W.u.7.7XfXrXh O.u.! +./.J./ $.6 E @.R D.o.o.D.2 j.E o.o.o.o.@.o.9 @ 9 o.",
"n g O.B X.v B X.s.e.p.*.c t.x j B =.e.&.X.X.X.8.M X.:.pXlXiX5.u.9.9.i.h 6.OXL.6.#.!.4 @.T ).0 f.g.d.9 j.9 E o.C.o.o.o.9 6 d.'.d.",
"5.O.3.X.9.1 B y.-.y.>.M *.N } =.X.j X.X.X.X.W.p.9.a.a.pXW.XX9.3.i.W.H.0.1.F.%.M.L C 2 8 C.Z E H g.d.9 h.o.h.6Xd.E tX(.8 o.o.o.j.",
"3.h O.i O.:.y.lXoXy.v &.>.j *.z p.p.X.e.a.eX&XW.8.eXpXW.W.oXH.K.9.Q.9.#.6.P n.n.p T 8 6X7 6 9 E E @.'.E d.R d.b.H S.m.o.A.h.8 h.",
"3 g n h n O.;.-.9.8.j ,.j N w.{ eXy.i.eXX.yX9.yXrXi.y.W.W.K.3.! F.3.O.%.4.~ n.L H @.G 8 @ T m.f.@.8 E ` ` d.R h.T h.h.aX@.A.8 G ",
"3 P h i ! ! W.u.n 9.| r t -.8. X8.y.a.8.8.:.yXW.rXW.9.&X9.1.W.+.#.P 6.4.L M.L m.T 5 H 9 m.T f.E T hX` !.Z.` Y.H o.T o.Z.!.kXH @.",
":.3 +.P 0.! O.s :.:. X:.a.v 7.y.W.:.O.0.:.Q.rXeXi.i.W.0.K.+.H.6.#.4.L G n.@.T x.T T N.m.@.H f.G h.A.m.k.!.4XN.7 T m.T f.H @.H E ",
"O.3.0.+.+.& s i b u.5.s q ;.^ a.W.9.O.9.Q.:.Q.9.rX&XW.5.Q.Q.3.+.H.~ G H K H 5 A.!.h.E H E tXT o.n.$.N.$.9X@.f.`.j.$.@.K f.!._.$.",
"%.J.:.3 / s b / W b b ^ 3.^ 5. X+.eX`.0.O.Q.+.0./.H.H.0.Q.Q.$.4.%.L H 4 H T 9 E 8 Z.`.T 6X%.z.p M.B.$.U.N.!.$.k.B.@.m.T @.j.A.o.",
"%.9.3.h h 1.1.F.n b b 4.H.;.7X5.0.eX0.9.V.J.0.V.i.i./.V.H.~.M.4.~ o.G C 8 U Z ` o.@.!.4 %.%.4.U.@Xk.c.%.U.h.z.%.^.gXo.m.h.K @.8X",
"P h 0.3 1.^ ;Xu.7.+.4.b +.9.$XL.O.V.%X/.V.%.V.iX%X`.0.V.4.@X~.$.$.K $.U U U f.7 j.K j.O H K @XxXc.J.z.M.4.$.$.@.` ` m.H h.m.5 m.",
"! ! H.+.| ^  .4.lX/ ! ! P ! +.V.4Xn.fXG Q.0.Q.V.3.fXQ.&X@X#.G.@Xx.h.h.K 2 E R d.f.6 ` $.i V.#.#.M.J.V.B.$.c.m.N.m.@.T T $.@.m.o.",
"5.b .X;.6.5. X7.u.1.+.1.F.V.~ %.Q.~.~ 4.G n.G./.c.F.@Xc.~.c.m.h.n.@.f.@., Y U U @._ T C %.c.4.1.1.4.G./.$.@X@.U h.H H H T %.A.`.",
"b & b W | 5.;.L.1.u.3.! ! P O.#.>XV.%.J.4.~ J y v.T.k.:X$.f.^.m.o.@.T m.) 7 ] 7 d.j.k.x.J N.#.1.tX0X#.U.$.` x.(.j.f.S.@.$.A.z.z.",
"e e H.b ^ | 7.3.6.2X+.M.~ J +./.n.4X>X%.' @X+X$.A I.fX_.N.m.Y.$.o.!.x.h.R.g.D @.K U k.%.C G.#.c.2.1.T.J.T n.`.` R A.H K T >Xz.L ",
"uXb s 5.;.;.6.1.;.#.M.+.9.%.#./.B./.h.n.V V , A V z.S k.A.h.A.A.!.'.k.g.V U ` C @.K $._ $.4.) F.#.n.x.c.B.L $.N.@.K ^.H N.` B.$.",
"3.1.:.%Xh 5.K.! ^ ~.^ +.$XM.~.U.9XN.K K _ N._ 7 7 ; R.l.S.m.`.C.m.'.h.o.$.k.T z.H m.h.G u K _ #.fXc.$.$.n./.!.3X$.x.N._ $.$.%.x.",
"0.W.5..X9.+.1.#.3.1.#.Q c.J u ^._ 4 !.K I.T.) ] 4 S S D.j.j.o.A.T A.$.8 U N.J.N.$.%.o.%.$.$.~ J K h._ %.B.K z.` M.$.N.T m._ 4 L ",
"K.9.XX=Xi.i.W.3.3.3.6.J G +.M.~ 4 K k.A.f.I.] 9X. 9 0 H E Y.@.o.d.R @.K _ k.L z.K $.N.N.v.k. .S K j./.@.m.N.!.%.%.$.2.' J z.Y.$.",
"K.O.0.5.XX9.^ 5.^ 1.0.2.1.P #.Q K _ 9X$.I.$.] D ` D ` 9 Z E `.(.` ` T x._ N.A.n.` !.T $.v.] v...f.8 T K K n.~ L $.' 2.U._ ] C :X",
" X8.r :.u. X5.;.0.6.1.6.a ! J.3   : 4 8 8 `.8 Z H 5XC H 8 4 9 8 g.` ` @.] k.f._ D.] ` _ ` D l.I.H f.x.`.h._ 3 $.A p #.#.) 2.I.$.",
"u.:.v O.n g 7.-.;.;.d ^ A a Q u T %.; `.7 B.$.4 _.4 !.H 6 o.+ m.7 g.D ] ) _ ] ` k.I.m.d.] ` l.` _.H Z E K z.@.K _ A #.$.2X' ~ z.",
":.i.t h ^ s yXs ^ b OX6.Q A u 3 3 _ $.8 C : D K @.h.sXH H n.n.$.N.H K $.k.' ) ` Z.x.l.E.g.Y ..Y @.S.aXR E @.'.j.M._ ~.c.4.' A %.",
":.0.g n v O.7.;.d W iX> / 1.Q V C o.L 8 8 $.!.U K m.C o.o.@.5 h.U.K <XN.+Xk...k.Y.b.E.g.b.D.l.k.j._.T 5XH x...9 8 _ O V +Xc.2.M.",
"7XyX0.! O.b ^ F.b OX;X2X0X_ T.S H A.o.C 8 `.Z Z @.8 H ` h.4 n.B.H 4 N./.v.I.I.v.l.b.b.b.....D ` S.g.U S.).R 6XsXh.C ; ) J Q T.Q ",
"H.0.+.Q.5.+.+.F.d L.J 2.c.' :XR.B.8 8 8 8 H D $.K 7 , Z z.K %.o.#./.~.@X+XOXl.I.I.I.Y...f.` Y.C.A.R j.f.j.g.sX).9 Z : H ) %./ J ",
"4.3 h ~ 3.3.1.3 4 * C c.z.$.v.) @.T ` T Z H F I Y H A.Y.$._ K /./.eX/ L ~ T.] l.Z.b.D.f.l.C.` U l.d.b.S.b.d.d.d.h.0 U.K C M.J.! ",
"F.%.O.G 4.P Q $.P u J N.] z.) v.@.H f.Z T ` Y 0 D D C ) ` _ >X%.4X/.M.J J.S ] k.] D.d.9Xg.` x.k.l.C.D.D.(.....aX@.T @._ ~ Q #.#.",
"J.W ~ ~ ~ J Q K p x.S ; 8XU.` _ v...0 ` b.g.b.D H U 4 3 o.~.$.OX&X0.:.%.%.%.$.@...S.b.g.` x...d.` _.E.b.D.).j.0 @.8 K 4 %.M.dXG ",
"k., A Q U.A 4 ; Q K N.K k.f.^.l.] F ..7 Y D.I b.E 9 9 @.d n.V.o./.jXtX3 Q.h.K !.f.C.R.d.C.C.x.j.).E.sXE.D.d.S.R H $.p %.p %.L L ",
") A k.~ Q K J _ C $.K C K S Y _ F ) g.S R 6 H E d.T $.$.K +./.Q.%Xh 4.O.%.N.@.T ` x.,Xl.l.@.x.g.D.).E.E.).C.E $.3 3 p K #.%.L %.",
" .+Xz.S _ 4 u $.c.f.k.Z ) Z jXU ` l.U D Y j.Z 0 Z.Z o.` N.L P 6.4.P o.8 B.%.m.@.C.x.b.D.d.S.$.Y.D.D.D...d.d.f.K C G * 1 4.u T.3 ",
"; v.S Z S ` V z.^.f.D _ _ x.x.` U I.Y $.Y R ` U R k.N.h.jX$.%.%.~.6.4 ~.N.f.h.T b...b.:XY d.x.` d...Z.g...D.@.T p > p u 3.1 tX3 ",
"F , : k.` U l.H f.R ` $.Y d.I x.Y ` H Z.D.U C.d.C.Z x.T J.4X$.H././.%.n.U.m.f.N.,Xv.k...N.` v._.'.E...D...I K 8 > 3 h 1 d > Q d ",
"K D ` x.Z ` R Z T U f.x.` x.d.U Z d.U d.f.R R @.D.x.$.m.c.z.c.z.jX!.$.h.m.f.Y.H k.g.Y.I Y 3XI.6X'.E.D.g.Z $.U _ J p A y f & y > ",
"I 6 , I Z Z Z d.R g.I d.d.d.x.R Z _ ).x.f.g.` _.Y.A.f.@.x.m.3X2./.m.z.k.$.@.g.I.Z.U x.$.Z.R.v.v.D.E.f.` I _ U.4.> = l  .u.6.( y ",
"Z 0 E 0 0 0 ` D.` Y R U f.9 D S.U l.` b.b._.....b.5Xk.v.v.I.v.+X^._.N.$.v.l.] 7 g.S ] Y R.3Xv.Y.N.@.m.sXH z.k.= M.W a ;.a ^ | y ",
"7 R I j.E.D.Y I ` ` E.d.R g...b.d...l.l.F l.b...l.l.....R.k.N.I.4Xh.k.^.k.] D < U <XS ` ) I.U.R._ $.U.x.K ; _ u ;X= e ( 7.;X( $ ",
"I Y R E Y I _ Y d.d.D.f.l.` R S.Y ....) ` l.b.l.l.<XD _ k.l.8Xz.2.v.f.k.) ) D D K ] k.] k. .' ] _ ' K J K K / p / y f k ( q f w ",
"I R qX9 m.0 f.x.x.d.d.` 0 Y S.I k._ F ..F ..] Y.Y.S.v._ ] I.) T.v.z.) K V l.] u v.] N._ ' ) 2.z.J _ 4.x._ J Q = = q 7.e l  Xq - ",
"2 9 D.9 R d.o.9 d.T A.j.` C.d.x.` ) x.V ] l.F S ] _ ] S p ) c.V 2.] k.Q +Xv.V ' U Q k.' v.R.) T.N.c./ L > d 2.Q w # w | {.f w l ",
"d.9 E o.f.R j.h.I E U f.R f.gX,XC.I.U U ` D  .S ) $.S W ' 4.#.P 2.) ) ] ] u ]  .S U.)  .2. .] a M.Q A A v.3 h /  .w w w # f f w ",
"o.E (.8 D.g.R f.R @.Y ` ` d.Y.` ) v.d.S ) C V ] 2.J.Q P ! ~ M.M.~ Q S ) ) I. .k.2.+XQ S ) S > G.6.M.J d ' Q a q l ( | w l w # w ",
"E d.@ 9 @.I E E T I.f.sX_ U Z O K S S ] ] _ k.] $.4.A P Q c.V.G.Q  . . . .) v.k.) ) u S ~ , ) v.$.4.3.$.' ( ~ f | q l w f  . .a ",
"..6 R 6 E I H aXf...d.f.k.) J J S k.S _ S ) z.K N.$.Q Q C M.6.3 ) OX4.' / 1.' P.A W Q 1. .S  .u G G ~ ~ L.6.OXf = y ( 7.k ;.d = ",
"..9 9 j.R j.b.R I C.] ) A V / U.J D U ] k.S :X$.A y p d h * G _ Q 3 #.4.P.6. .1.W a a A y c.V Q p M.Q ~ c.| ( f q W 1.OXl e l s ",
"I R d.R d.R U ..l.U g.d.S A S J Q K C $.F ] z.J C %.* i 4.A d 4 3 Q @X#.Q d y y f l f $ y k.' <X_ 4 $.Q v.6.6.| y a ( | 1.W 1 = ",
"I d.D.9 j.` ` j.d.Y g.S ) A p ] C C C $.) ) V ~ % 3 +.3 A P M.3XP ! / n.d ( & = = p 1.= Q ' u Q 4 _ 2.#.c.T.' A ' f ' 1.6.1.% $ ",
"d.d.D...E.g.` ..g.U ` ) ) ` _ V %.* J $.Q Q ' % L.L #.Q X * A ! ~ %.! J d d $ a l .Xy u  .k.f ) 4 2.]  .k.S ' % Q 1.u a ' | c.S ",
"E.'.g.b...d.F g.D D ..Y S S J Q 4 _ K _ 4 I.> S _ +.y 3 F.$.$.2.L / V./ = W W u #.' Q A u V V V k.Q ' l.c.2.> ' > Q , Q S v.f A ",
"..D.g...R I g.0 l.` l.] I K K N.$./ ' , ~ k.< Q L L 4 L #.' ~ c.M.$.S T. .L.Q f y A A c.( S  .l.]  .Q ) v. .V Q A y V c.) S S  .",
"9 ....g.9 C.C.6X...._ A.) ' H _ / A , Q u ) ] ) V ~ A 4.%.4.$.) 2.2./ z. .v.+Xc.2.]  .z.<X) S F ' Q k.( c.( v.T.A > / S S Q S OX",
"6 F ..` ` _ v.) ) ) D ) ..) S u 3 % % 2.Q S A ] V < ) u A z.c.v.$.4.^.' $.2.k. .Q k. .v.l.] F +XS Q c.Q a ' 4.3.L ' Q 1.Q k.u G.",
"F : 0 @ 7 F D ] ] sXI.V V ) v.2.p A 4 V k.K D  .] > Q A ) ] ] ] k.Q +Xu u S ' Q ) S ] l.) ] D ]  .' ( G.V p 1XJ 3.J ) 4.u S  .S ",
"0 Y D 0 @ ) I., S V u Q 3 3 3 3 ~ 3 ) u ] ' ) V V ' V S $.Q ] A K ) T.u S ' ] G.I.] V ] ] ) Y , V y 1.> T.= / #.2.P p #.V V ' < ",
"g.@ D 6 ; S ) ] < S V ) Q u p G * W Q J < V , ] V ) A Q +XV J C L %.J , < ] V ) ] v._ E.qXY F ] u < . J J G.4.%./ c.p 4 ' < < u ",
"..@ 6 @ . . V u % u < 3 3 d h 4 * * %.* 2.' ] +X2.G.> u C 3 _ ~ 4.C J 5 A V V.S _ z.$.) l.K D U l.u A T.X H.%.6.~ L A ~ D V D ) ",
"9 ..Y Y S . < . > 3 * 1.#.i 1 i h 1 y 4 2.) ' p A p ~ ~ 3 ~ %.6.L V.L P Q Q $.C 8X$._ Z.N.T gX^.l.] K u H h /.4.c._ ' A.) ) S D ",
"g...F Y V . u u  .~ / p G O.h h h +.! ' Q S V Q Q 2.' #.X L 4.4.%.~ 3 4.%.G L Q %.$.N.z.h.T m.o.`.B.$._ $.#.3 _ 2.L k.A.C.f.g.7 ",
"....I O o A < A > y 3 1 +.& 1 X 3 ~ ~ ~ ( u A y u G i #.P p +.+.#.#.L i ~ G #.k.K U.$.m.@.3XH h.j.8 T o.4 K %.k.p 2.K N.x.C.g..."
};
