/* XPM */
static char *f2511ba58d8a450eed09eca1bd461e254B4ql5mMKcm2TXEw[] = {
/* columns rows colors chars-per-pixel */
"64 64 242 2 ",
"   c #361700",
".  c #36390B",
"X  c #503709",
"o  c #553D11",
"O  c #125A19",
"+  c #2B5111",
"@  c #2E7317",
"#  c #2D712F",
"$  c #347C3B",
"%  c #46441C",
"&  c #584518",
"*  c #634614",
"=  c #467C1B",
"-  c #545125",
";  c #654A24",
":  c #6A562B",
">  c #745831",
",  c #5A6A37",
"<  c #76623A",
"1  c #6B7039",
"2  c #3A3D4E",
"3  c #345A57",
"4  c #33784F",
"5  c #396565",
"6  c #4A5D4B",
"7  c #4A7B4C",
"8  c #506F54",
"9  c #567358",
"0  c #717146",
"q  c #7C744A",
"w  c #537960",
"e  c #577976",
"r  c #627967",
"t  c #825B31",
"y  c #8A6E3C",
"u  c #886A44",
"i  c #8B7747",
"p  c #937444",
"a  c #967947",
"s  c #90714D",
"d  c #9B7A4B",
"f  c #9A7B55",
"g  c #A17E4F",
"h  c #A37B55",
"j  c #348B17",
"k  c #348624",
"l  c #398C2C",
"z  c #4B8C2C",
"x  c #459338",
"c  c #7DAE3C",
"v  c #7DB03E",
"b  c #38834A",
"n  c #44894A",
"m  c #549A47",
"M  c #4B8957",
"N  c #568658",
"B  c #4C9255",
"V  c #768B56",
"C  c #59A44B",
"Z  c #5AA94F",
"A  c #66A849",
"S  c #7BB346",
"D  c #6DAE54",
"F  c #67B65B",
"G  c #76B95C",
"H  c #478C62",
"J  c #4C9965",
"K  c #539770",
"L  c #63896A",
"P  c #689869",
"I  c #7E9E66",
"U  c #769878",
"Y  c #58A76A",
"T  c #5DBE6F",
"R  c #5CA575",
"E  c #67A46A",
"W  c #67B864",
"Q  c #63B46C",
"!  c #6BB46D",
"~  c #65BC6D",
"^  c #6BBD6D",
"/  c #75B967",
"(  c #72BC6C",
")  c #66A377",
"_  c #64AE73",
"`  c #63AC7C",
"'  c #6CAE7D",
"]  c #77AA78",
"[  c #63B572",
"{  c #6BB573",
"}  c #65BB72",
"|  c #6BBE73",
" . c #65B47C",
".. c #6DB57A",
"X. c #66BB79",
"o. c #6CBD79",
"O. c #72B475",
"+. c #7BB375",
"@. c #72BD74",
"#. c #74B47C",
"$. c #7DB57B",
"%. c #73BD7B",
"&. c #7ABC7C",
"*. c #77C94C",
"=. c #7DCD55",
"-. c #76C65A",
";. c #7BCC5C",
":. c #7ED456",
">. c #65C06E",
",. c #6BC26D",
"<. c #7CC865",
"1. c #73C36E",
"2. c #65C273",
"3. c #6DC275",
"4. c #6AC876",
"5. c #6DC37A",
"6. c #6DCA79",
"7. c #72C376",
"8. c #7BC573",
"9. c #72CA76",
"0. c #72C47B",
"q. c #7AC27C",
"w. c #73CA7C",
"e. c #7ACB7D",
"r. c #79D376",
"t. c #85B339",
"y. c #9A854D",
"u. c #898856",
"i. c #998353",
"p. c #84945D",
"a. c #A48856",
"s. c #83BA53",
"d. c #8E8E6D",
"f. c #A79866",
"g. c #85A975",
"h. c #93AE75",
"j. c #86B77A",
"k. c #81CF5C",
"l. c #86E05B",
"z. c #86CF6F",
"x. c #86D467",
"c. c #81C477",
"v. c #95EB78",
"b. c #5B8687",
"n. c #6E9489",
"m. c #67AB83",
"M. c #7CAE83",
"N. c #6CB584",
"B. c #6CB985",
"V. c #7CB483",
"C. c #74BC82",
"Z. c #7ABD82",
"A. c #75B888",
"S. c #77BA99",
"D. c #7FB0AE",
"F. c #6FC280",
"G. c #74C382",
"H. c #7AC383",
"J. c #75CA82",
"K. c #7BCB82",
"L. c #77C08A",
"P. c #7BC58A",
"I. c #7DCA89",
"U. c #7AD487",
"Y. c #7AC191",
"T. c #859C89",
"R. c #8C9F91",
"E. c #88A98B",
"W. c #98AD84",
"Q. c #83B483",
"!. c #82BB86",
"~. c #85B48C",
"^. c #8BB38C",
"/. c #84BC8A",
"(. c #94B78D",
"). c #8CA892",
"_. c #92A794",
"`. c #8ABD92",
"'. c #93B797",
"]. c #B1B38A",
"[. c #92B0AE",
"{. c #87B6B5",
"}. c #A5BDA4",
"|. c #83C385",
" X c #83C48B",
".X c #87CA89",
"XX c #84D287",
"oX c #8DC592",
"OX c #92CA9A",
"+X c #99D0B5",
"@X c #B6C2A7",
"#X c #B1CFB6",
"$X c #B2F3B6",
"%X c #9CC8C4",
"&X c #A5CCCA",
"*X c #AED9D2",
"=X c #B8FACC",
"-X c #AFEDD8",
";X c #ADF4D9",
":X c #B5F8D7",
">X c #B5F9DB",
",X c #BBFDDC",
"<X c #B6E3E4",
"1X c #B6F7E7",
"2X c #BCFDE5",
"3X c #B6FAEE",
"4X c #BBFEED",
"5X c #AFF8F5",
"6X c #B4F6F5",
"7X c #B6FEF5",
"8X c #B9FEF5",
"9X c #BBF6F9",
"0X c #B6FEFA",
"qX c #B9FEFB",
"wX c #C9DCD8",
"eX c #D7EBD9",
"rX c #CAFCD5",
"tX c #D7FCD8",
"yX c #D5FFDC",
"uX c #DBFEDD",
"iX c #E4FADF",
"pX c #D7E8E9",
"aX c #C3FFE6",
"sX c #DCFEE4",
"dX c #DEFFEB",
"fX c #C2FDF4",
"gX c #C2FEFC",
"hX c #CCFCFA",
"jX c #D9F7F8",
"kX c #E6F6E7",
"lX c #E3FEE4",
"zX c #EAFDE5",
"xX c #E5FFEB",
"cX c #EBFEEC",
"vX c #F1F9EB",
"bX c #F1FDED",
"nX c #E6FCF2",
"mX c #ECFEF2",
"MX c #F3FFF3",
"NX c #F9FDF4",
"BX c #F6F8F8",
"VX c #FCFCFD",
/* pixels */
"8XqX8XqX0XqX0XqX0XqX7X7X8XqXqXqXqXqXqXqXqXqXqX8X7X7X7X7X7X0X0X0XqXqX8XqXqXqX0X0X0X0X0X0X0X0XqXqX0X0X0X0X0X0XqXqXqXqXqXqX9X{.D.e ",
"qX8X0X8X0X0X0XqX0XqX7X7X8X7XqXqXqX8XqXqXqXqX8X8X8X8X7X8X7XqX0X0XqXqXqXqXqXqXqX0X0X0X0X0X0XqXqXqXqX0X0X5X7X8XqXqX6XqXqXqXgX{.e %X",
"qX8XqX8X0XqX0XqXqX0X7X3X3X7X0XqX8X8X8X8X8X8X8X8XqX7X8X7X7X0X0X7X8XqX8X8XqX0X8X0X0X8X8X7XqX7XqX8X8X8X0X7X7X8X8XqXqXqXqXqXhX{.3 n.",
"0XqXqXqX7X0X0XqXqX0X7X7X7X7X8X7X7X7X7X8X8XqXqXqXqXqX0XqX7XqX0XqXqXqX8XqX8X8XqX8X7X0X7X7X8X8X8X8XgX8XqX7X7X7XqXqX0XqX7X8XgX{.3 n.",
"qXqXqXqX8X7X8X8X0XqX0X0XqX0X0XqX8X8X0X7XqXqXqXqXqXqX0X0X0XqX7XqXqXqXqXqXqXqXqXqX0X7X8X8XqX8X8XqX8X8X0X7X7X7X0X0XqX6XqXqXgXhX3 pX",
"qXqXqXqX7X8X7X8X0X0X0X0XqXqXqX0X7XqXqX0X0XqXqXqXqXqX0XqX0X0X0X8XqXqXqXqXqXqXqXqX0XqXqX0X8X8XqX7XqXqX0X0X7X0XqXqXqXqXqXgXhX&XjX*X",
"qXqXqXqX7X7X7X7X0XqX0XqXqXqXqX0X0X0X0X0X0X0XqXqXqXqXqX0X0X0X8XqXqXqXqXqXqXqXqXqX0X0X7X0X0XqX0X0XqX0X0X5X5X0X0X0XqXqXqX9X<X5 jX[.",
"qXqXqXqXqX7X7X7X0X0XqXqXqXqX0X8X8XqX7X0X0X0XqX8XqXqX0X0X0X0X0XqXqXqX0X0X0X0XqXqX7X8X0X7X0X7X0X0XqXqX0X7X0X5X0XqX6XqX9X9XhX[.jXe ",
"qXqXqX7X7X8X7XqX0X0XqXqX8X8X7X8X8X8X7X8X7X7X7X7X7X8X8X7XqX0XqXqXqX3X7X7X7XqX7X8X7X0X7X0X0X0X0XqX8X8X0X7X7X0XqX0XqXqX0X0X6XfX&X*X",
"qXqXqXqX8X8XqXqXqX0X8X8X8X3XfX8X6XqXfX8X4X8X3X7X7X7X8X0XqXqXqXqX8X8X8X7X7X7X7X7X7X7X7X0X0X0X0X0X8XqX0X7X7X7XqX0XqX0X5XqX3XgX%X+X",
"qXqXqX8XqX0XqXqX0XqXqX3X8X8X8X8XqXgX9XqXqX6XqXqX8X8X8X7X8XqXqXqXqXqX7X7XqXqXqXqXqX0X0X0X0X0X0XqXqXgXqXqX0X0XqXqXqX0X5XqX9XgX5 <X",
"qXqX8X8X8XqXqXqXqX8X8X1XfX1XgX9XgX9XqXgXqXqX6XqXqX0X0XqX8X0XqX0X0XqXqXqX0XqXqXqXqXqXqX0X0X0X0XqXqXqX0X0X0X0XqXqX0XqX5XqX6XgXb.<X",
"9X8X8X8XqXqXqXqX6X8XaXS.rX,XaXfX4XfXfX8X8X8X7XqXqXqXqX0X8X7XqX8XqX6XqX9XqXgX6X8X0XqXgXqX7X6X7X8XqX7X7X0X7X8X8XgXqXqXqXqX6XhXhX{.",
"qXqX8X8X8XqX9X9XfX:X4 Z.b b H =X=X,X,X>X1X4X8X6XqX0X0X0XqX8X8X8XgXqXqXqX8X8X8XfX8X8X4X7X4X8X4X4X7X4X3X4X3X6X3X4X8X3XqX5X9X<X*Xe ",
"qXqX8X8X8X8X6X1X>X$Xc.<.;.k.c.F $X8.O # Y.,X;X4X8X7X6X0X8XqX8X7X6X4X4XgXfX;X3X4X>X1X:X:X,X,X,X:X,X,X,X,XaXrXaXaX2X2X;X;X;X;XrX+X",
"qX8X8X8X8X8X8X2X,X$ ;.k.k.G k.k.z.;./ <.8.$ ,X,X4X7X7X6X7X4X4X3X-XS.4 4 K n.S.B.m.A.S.C.N...B.C.N.A.N.A.N.] m.N.A.m.m.m.B. .m.R ",
"qXgX8X3XgX1X2Xm.rXG x.=.*.=.-.;.x.*.:.*.:.;.l n 2X1X2X4X+XK H R B.OXC.N.A.C.C.C.P.B.o.o.o.%.%.0.0.5.o.o.O.! %.%.C. .F.F.F.[ X.} ",
"7X6X8X3X2X:X' H.Z <.=.*.=.*.:.-.;.-.*.*.*.:.c.OX=XS.H J F.Y.L.C.F.X.I.P.0.{ G.XX5.5.2.5.| 7.| { } ~ w.7.( | ! | X.} b Y B.5.} 5.",
"7X3X4X1X=Xn 8.x.*.:.*.*.:.*.:.-.-.;.x.*.-.x # n A.Y.P.I.J.F.o.%.5.F.H.%.%.%.@.%.0.5.5.5.3.o.5.0.| 5.5.} 3.@.%.%.[ B.J b 4 N.B...",
"fXfX>XN.B x.F =.=.*.:.;.*.;.-.:.x.x O C e.e.7.w...H.J.w.F.6.o.0.0.o.XXZ.| XX%.{ 0.5.| 2.} o.0.0.G.} 6.} 3.o.{ _ M J ` R Z.O H E ",
"fX<X) /.8.G x.x.-.G -.z.m @ k Z W ^ 9.2.| 0.7.0.G.J.0.w.,.4.,.9.7.0.q.e.e.%.q.| | o.F.J.J.G.5.o.%.@.4.w.} | L.$ R Y R m.) R K #.",
"-Xm.E m C C x @ @ x C 7.9.7.( 1.! 0.} 5.J.0.7.9.5.5.J.w.w.,.,.9.3.9.w.! XX| ^ 0.5.| | } [ } o.o.0.7.3.3.0.| %.[  .m.R ` 4 # Y ' ",
"&.E ! @.1./ 8.( 7.| | 0.3.3.7.7.e.^ U.T | | 0.9.w.4.w.6.e.w.3.3.5.5.6.3.K.4.U.5.| 5.J.0.0.0.0.| 3.^ 3.4.7.9.@.# Y b B b A.C.C.[ ",
"^ | | ^ ^ ,.,.^ | 0.o.o.4.3.9.4.| 7.4.2.0.0.7.9.w.4.6.2.0.w.5.0.w.0.6.5.H.w.| 5.5.| 0.3.} | 0.| 3.w.4.^ 7.7.7.%.F.2.B.C...[ } } ",
",.W w.| | 3.>.,.,.4.4.4.3.~ 9.7.@.7.6.4.| @.9.e.0.K.9.J.5.G.G.Z.%.0.[ F.o.H.0.5.w.| 0.| 3.| Q | 5.| 7.4.4.3.@.0.F.F...Z.Q 0.~ T ",
",.0.| | 3.2.3.~ 2.w.,.,.7.4.9.3.@.w.6.>.0.@.J.7.|.q.7.e.5.G.C.Z.Z.E H.A.L.H.H.o.o.7.0.@.3.2.w.o.C. X%.%.@.0.0.{ T J.| &.%.Q 4.>.",
"K.7.,.^ 7.^ o.5.5.| ^ w.7.! @.7.| 0.6.6.K.H.5.H.$.2 .Xq.X.G.2 ] N 2 V./.V.oX2 C.H.H.%.%.w.F.6.o.2 2 2 !.#.O.] /.J.5.C.{ [ 2.2.T ",
"n 7.W 7.3.0.X.X.5.o.3.| | 0.@.| 0.| w.K. X2 G.K.j.tX2 .X.X2 tX^.2 lX~.2 ] 2 yX#.Z.O.oX|.G.2.} Z.2 cXiX] /.E , # Z.o.%.&.o.3.2.~ ",
"F r./ 7.e.3.^ w.} F.F.X.5.} ^ | 7.w.I.P.2 yX2 A.P iX2 j./.2 lX(.2 cX).rXU 2 xX~.`./.2 oXZ.C.A.2 mXzXkX2 ] + V . g.j.Q.g.%.| | o.",
"D G @.@.| @.| ~ G.[ G.o.{ w.e.K.e.W 0.Y.U lX#.Z.oXlXzX2 E.xXlXE.2 NXT.mX8 vXxX).U 2 cXlX2 A.`.2 mXwXkX2 _.- q ].h.0 , + j.$.@.{ ",
"D + @./ n Z.Z.@.o.%.| { 7.! 7.n | K.5. X2 zX2 #.M.sXnX2 2 mX2 E.2 NX2 mX2 mXxX'.2 cXzXcXxX~.2 xX+X2 bX2 ].% u a.; : X . , h.+.O.",
"P +.+.N $Xg.+XN L.{ j.2 P H.O.2 $ %.X.Z.2 zX2 |.`.2 kXpXvXxX2 `.2 cX2 MX2 BXmX_.#XiX2 cXxX).'.kXU 2 cX@Xd.0 u h ; ; f y i V 7 V ",
"# c.2 2 2 (.2 2 V.#.2 bX2 ~.j.tX2 C.o.V.2 kX3 j.&.2 mXnXMXlXQ.$.2 mXBXBXVXMX2 E.2 mXr 2 MX2 ).nXL 2 cX@X2 < u X t s f f s p i.u.",
"+.&.2 sX2 E.vX2 M.2 lXbXMX2 ~.uX2 #.o.Z.2 kX2 |.^ .X2 nXkX2 !.&.2 mXBXBXVXBX2 '.2 eX^.2 uX2 E.sX] 2 bX@X2 f h s > u s   a a.y f ",
"^ &.2 lX2 _.vX2 '.3 zXeXcX2 E.kX2 #.q.Z.2 xX2 &.0.| 2 nXdX2 @.%.2 kXMXVXBXVX2 E.xXeX'.2 cX2 T.cX'.2 lX@X2 s a.s ; 0 ; < * y.y i ",
"q.O.2 kX2 2 vX2 '.eX9 2 bX2 T.cX2 ] 0.#.2 xX2  X@.P.2 xXlX2 q.! Q.cXvX2 BXVX2 /.2 eX^.2 cX2 _.eX#X2 cX2 d.0 & i o u o f % a.i.i.",
"^ %.2 cXkXvXNX2 R.sXr 2 lX2 _.mX2 |.@.&.2 cX2 `./.V.2 xXlX2 q.q.2 cXMX2 VXMX2 V.dXeX).2 kX3 }.cXNX2 bX2 d.i : f y > p * a.y.y.f.",
"[ K.2 lXvXBXNX2 R.mXL 2 mX2 T.cX2 V.{ Z.2 mX2 ^.Q.Q.2 cXlX2 @.@.!.lXuXU mXeX2 ~.@XMXE.2 vX6 '.2 cXcXcX2 W.0 i i d y * d y.y y.y.",
"J...2 cX2 [.BX2 r xXL 2 dX2 R.mX2 `. XN.2 nX2 uX2 oX'.2 uX2 H.H.!.2 yXE.2 tXoX|.2 BX2 lXzX2 /.2 MXmXzX(.^.0 - d o y a.g a g a a ",
"X.H.2 lX2 L MX2 6 mX9 2 nX2 T.MX2 E.) `.2 xX2 2 dXM.V.2 uX2 0.H.Z.2 # |. X2 &.Z.2 cXMXcXuXM.O.O.2 lX7 $.] h.8 u.p p y X t y d a ",
"X.F.2 cX2 w xX2 9 lXr 2 lX2 E.lX2 2 2 7 2 xXlXyXM OXC.2 rX2 L.%.C.C.G.C.q.q.q.&.2 lXcXxX2 Z.q.@.2 2 |.q.&.&.!.I < i.d d h t p a ",
"} B.2 lX2 9 lX2 U xX*X2 xX2 Q.lXcXNXlXP (.7 P #.I.I. X3 2 $.%.%.0.0.G.0.7.7.7.8.!.2 sX2 |.G.^ 0.0.^ 7.( | 5.0.j.h.1 : y h p y.y ",
"X.%.2 zX2 N uX2 `.zXxXMXxX2 /.P '.E.7 /.#.%.&.o.J.w.5.U.| %.J.5.4.9.0.G.6.9.9.q.H.Z.M #.! ! @.| 5.3.1.^ ~ 4.X.J.8.g.u.& d d y a.",
"3.o.2 uX2 B rX2 !.2 kXmX2 M..X+.j.V.V.o.q.! 0.w.2.6.J.w.| J.5.6.9.6.0.F.w.e.w.7.6.H.%.%.q.7.^ w.^ 4.,.7.,.4.T w.q.j.h.u.- y.y.y ",
"| @.2 3 2 #.2 2 &.2 lXlX2 |.{ %.%.[ B.} | 0.7.^ 9.4.q.e.e.7.6.9.9.w.J.G.J.e.9.9.e.e.5.G.K.3.3.^ 3.2.,.7.^ @.@.%.q.@.! .Xh., X y.",
"^ | E 5.O.{ | o.&.!.2 2 !.{ { 3.| 0.J.5.w.Q ^ 7.| 5.0.7.q.K.w.9.9.e.J.J.J.w.r.9.r.J.F.J.w.^ w.w.5.3.7.7.^ @.7.7.0.7.{ 0.@.j.p.1 ",
"W ^ 6.2.X.F.} o.%.C.%.%.5.0.} 3.} w.} o.5.3.4.4.3.6.o.0.q.q.9.9.e.e.J.J.6.6.1.1.0..X5.XX| 3.4.~ 3.5.@.@.^ 9.4.3.9.9.} 6.~ { +.+.",
"^ 2.T T X.} 4.} o.{ 9.4.} 6.2.5.5.| 5.o.5.3.3.3.0.5.5.3.q.| w.9.w.w.G.0.6.6.1.1.e.Z.J.0.0.@.w.4.} J.%.7.| 6.3.6.w.5.} 4.} T 3.3.",
"} } 2.>.~ 3.,.~ | 3.| | 5.o.5.o.} 5.0.G.w.3.} 3.3.3.| 3.| 7.3.9.0.G.J.3.4.,.4.,.@.%.0.0.%.0.w.4.5.5.3.5.7.3.w.w.3.o.3.2.5.5.5.2.",
"} } } } ~ 2.,.~ 3.7.5.o.0.5.2.5.o.0.5.o.| 3.5.0.} 3.| w.w.7.3.7.0.0.6.3.6.,.4.3.^ | o.%.o.0.7.9.3.3.3.3.0.3.5.0.0.5.5.5.5.5.5.F.",
"X.X.} } } | o.} | o.o.| | 4.5.3.5.5.0.3.| | 0.5.3.3.3.3.w.| | 3.0.5.0.3.4.3.3.,.3.7.7.| 3.3.3.3.3.3.w.3.7.3.3.0.7.3.o.} o.2.2.2.",
"X.} } } } X.o.X.X.o.} | ^ 3.^ 4.3.3.0.7.5.w.0.3.w.5.7.^ 9.| 3.9.| 0.7.4.4.,.3.,.7.3.| 3.3.| 3.3.5.7.3.3.3.3.0.w.w.5.| } } } } X.",
"T ~ } } [ } } | X.5.| | | ,.,.,.7.3.w.| 3.3.0.| 3.7.7.| 5.9.5.3.3.3.3.3.| | | 3.3.^ | 3.3.~ ,.3.4.3.| 3.7.w.0.5.0.5.| | } 2.o.} ",
"[ T } o.[ } | | | 5.o.| 3.,.,.,.4.3.| | 3.3.w.| w.w.3.3.3.3.5.3.3.3.3.7.| 0.| 3.3.| 3.,.3.,.3.3.3.3.3.3.7.w.w.0.w.5.3.3.5.| } } ",
"} [ } } { ~ ^ ^ ^ { | o.3.| ,.4.^ 3.| 3.7.7.3.9.0.| | 5.| | 5.| 3.~ 9.| ^ e.| 5.5.w.7.3.,.3.3.3.0.3.3.3.5.w.w.3.5.5.0.| 3.| } } ",
"[ [ [ } | 3.3.~ ~ 3.5.| 5.| 3.^ 3.3.^ | | w.3.0.~ Q | J.3.| 3.| 3.~ 7.( @.XX@.0.5.3.3.^ ^ | 2.5.3.3.3.3.| 3.3.7.5.w.3.5.| | o.w.",
"T T >.T >.~ | | ~ | | | ~ } 3.} 3.3.3.3.3.3.7.3.w.0.0.w.| | 3.3.5.~ ( ( ( m q.o.5.o.} ~ | 3.3.2.5.3.3.w.3.3.3.5.w.3.0.| | | | | ",
"Q F C F k F Y } X.| 3.,.~ 3.5.3.} ,.^ 3.3.| | 3.| | 5.w.3.5.0.w.T w./ / m D @.@.o.2.3.| ,.| 2.5.4.3.3.3.9.7.3.7.3.3.3.0.0.0.@.0.",
"F F XXj ;.k 3.2.X.X.3.,.>.~ X.o.| | | 3.,.3.^ | | 3.0.5.3.5.5.5.5.w.W G @ D / @.| X.| | | | 3.5.3.3.4.3.| 5.4.3.0.w.3.7.3.7.7.0.",
"j v.:.:.:.j 3.X.X.X.2.,.,.>.5.X.| | 3.3.| | 3.3.| 5.3.0.| 5.0.5.F.| / A = S c./ 3.X.o.5.| 3.| 5.4.5.3.3.3.3.3.3.7.3.0.| | @.| @.",
"*.:.l.:.:.:.l X.X.X.,.,.F >.3.o.| | 3.3.3.^ ^ | | 3.7.3.w.5.w.5.| @.@ k.S s.A / | | | o.| | } 3.| 4.3.| 3.} 3.3.3.7.7.3.@.@.7.7.",
"k -.j j l k k T } } ~ >.>.>.5.} 3.| } 3.3.| 3.3.3.3.3.3.7.5.o.0.5.8.z t.c c z A ^ | 5.| ^ 3.3.3.} 3.3.3.~ ~ 3.4.3.3.| 3.3.| | @.",
"F W r.>.W W | } [ } } } ~ 3.} } 3.| | | 3.3.3.3.| 7.| | 3.| | w.o.( + v t.c s.A W 3.5.| | ^ ,.2.3.3.2.3.,.} | 4.3.3.7.@.| ^ @.^ ",
"_ Q Q ,.| Q } } } [ } } ~ } 3.} 3.| | 3.7.3.3.3.| 3.| 3.3.3.| 0.| ^ @ t.t.t.v G ^ 3.3.| ^ ^ ,.~ 4.3.3.3.3.~ | 3.| ^ | | @.@.@.@."
};
